<svg width="26" height="26" viewBox="0 0 26 26" fill="none" xmlns="http://www.w3.org/2000/svg">
<mask id="path-1-outside-1_408_1466" maskUnits="userSpaceOnUse" x="0" y="0" width="26" height="26" fill="black">
<rect fill="white" width="26" height="26"/>
<path d="M23.545 22.1351H23.185V21.7701C23.1837 21.4484 23.0754 21.1362 22.8772 20.8827C22.6789 20.6293 22.402 20.449 22.09 20.3702V10.7506C22.402 10.6719 22.6789 10.4915 22.8772 10.2381C23.0754 9.98465 23.1837 9.67246 23.185 9.35069V9.00071H24.635C24.7142 9.00048 24.7912 8.97451 24.8543 8.92671C24.9174 8.87891 24.9633 8.81188 24.985 8.73572C25.0062 8.65979 25.0026 8.57906 24.9747 8.50531C24.9469 8.43156 24.8962 8.36864 24.83 8.32574L13.19 1.05606C13.1334 1.01947 13.0674 1 13 1C12.9326 1 12.8666 1.01947 12.81 1.05606L1.17 8.31074C1.10385 8.35364 1.05314 8.41656 1.02525 8.49031C0.997371 8.56406 0.993779 8.64479 1.015 8.72072C1.0367 8.79688 1.08257 8.86391 1.14571 8.91171C1.20884 8.95951 1.28581 8.98548 1.365 8.98571H2.815V9.35069C2.8163 9.67246 2.9246 9.98465 3.12285 10.2381C3.32109 10.4915 3.59801 10.6719 3.91 10.7506V20.3702C3.59801 20.449 3.32109 20.6293 3.12285 20.8827C2.9246 21.1362 2.8163 21.4484 2.815 21.7701V22.1351H2.455C2.06911 22.1351 1.69903 22.2884 1.42616 22.5613C1.15329 22.8341 1 23.2042 1 23.5901L1 24.635C1 24.7318 1.03846 24.8247 1.10691 24.8931C1.17536 24.9615 1.2682 25 1.365 25H24.635C24.7318 25 24.8246 24.9615 24.8931 24.8931C24.9615 24.8247 25 24.7318 25 24.635V23.5901C25 23.399 24.9624 23.2098 24.8892 23.0333C24.8161 22.8568 24.709 22.6964 24.5738 22.5613C24.4387 22.4262 24.2783 22.319 24.1018 22.2459C23.9253 22.1728 23.7361 22.1351 23.545 22.1351ZM22.455 21.7701V22.1351H18.09V21.7701C18.0913 21.5774 18.1688 21.393 18.3056 21.2572C18.4423 21.1214 18.6273 21.0452 18.82 21.0452H21.73C21.9223 21.0452 22.1067 21.1216 22.2427 21.2575C22.3786 21.3935 22.455 21.5779 22.455 21.7701ZM7.545 20.3702V10.7506C7.85606 10.6709 8.13186 10.4902 8.32913 10.2368C8.5264 9.98347 8.63398 9.67179 8.635 9.35069V9.00071H10.09V9.36569C10.091 9.68679 10.1986 9.99847 10.3959 10.2518C10.5931 10.5052 10.8689 10.6859 11.18 10.7656V20.3702C10.8689 20.4499 10.5931 20.6306 10.3959 20.884C10.1986 21.1374 10.091 21.449 10.09 21.7701V22.1351H8.635V21.7701C8.63398 21.449 8.5264 21.1374 8.32913 20.884C8.13186 20.6306 7.85606 20.4499 7.545 20.3702ZM6.815 10.8006V20.3002H4.635V10.8006H6.815ZM11.91 10.8006H14.09V20.3002H11.91V10.8006ZM14.455 10.0757H11.545C11.3527 10.0757 11.1683 9.99928 11.0323 9.86332C10.8964 9.72736 10.82 9.54297 10.82 9.35069V9.00071H15.18V9.36569C15.1761 9.55535 15.098 9.73592 14.9624 9.86865C14.8269 10.0014 14.6447 10.0757 14.455 10.0757ZM10.82 21.7701C10.82 21.5779 10.8964 21.3935 11.0323 21.2575C11.1683 21.1216 11.3527 21.0452 11.545 21.0452H14.455C14.5506 21.0452 14.6453 21.0641 14.7336 21.1008C14.8219 21.1376 14.902 21.1914 14.9694 21.2593C15.0368 21.3271 15.0901 21.4076 15.1263 21.4962C15.1624 21.5847 15.1807 21.6795 15.18 21.7751V22.1351H10.82V21.7701ZM14.82 20.3702V10.7506C15.1311 10.6709 15.4069 10.4902 15.6041 10.2368C15.8014 9.98347 15.909 9.67179 15.91 9.35069V9.00071H17.365V9.36569C17.366 9.68679 17.4736 9.99847 17.6709 10.2518C17.8681 10.5052 18.1439 10.6859 18.455 10.7656V20.3702C18.1439 20.4499 17.8681 20.6306 17.6709 20.884C17.4736 21.1374 17.366 21.449 17.365 21.7701V22.1351H15.91V21.7701C15.909 21.449 15.8014 21.1374 15.6041 20.884C15.4069 20.6306 15.1311 20.4499 14.82 20.3702ZM19.18 20.3202V10.8206H21.365V20.3202H19.18ZM22.455 9.35069C22.455 9.4459 22.4362 9.54017 22.3998 9.62813C22.3634 9.71608 22.31 9.796 22.2427 9.86332C22.1753 9.93064 22.0954 9.98404 22.0074 10.0205C21.9195 10.0569 21.8252 10.0757 21.73 10.0757H18.82C18.6273 10.0757 18.4423 9.99944 18.3056 9.86363C18.1688 9.72781 18.0913 9.54342 18.09 9.35069V9.00071H22.455V9.35069ZM3.18 8.25574H2.635L13 1.79103L23.365 8.25574H3.18ZM3.545 9.35069V9.00071H7.91V9.36569C7.90868 9.55842 7.83119 9.74281 7.69443 9.87863C7.55767 10.0144 7.37274 10.0907 7.18 10.0907H4.27C4.17352 10.0907 4.078 10.0714 3.98905 10.0341C3.90009 9.99671 3.81949 9.94196 3.75197 9.87305C3.68445 9.80413 3.63136 9.72243 3.59582 9.63273C3.56028 9.54304 3.543 9.44715 3.545 9.35069ZM3.545 21.7701C3.545 21.5779 3.62138 21.3935 3.75735 21.2575C3.89331 21.1216 4.07772 21.0452 4.27 21.0452H7.18C7.37274 21.0452 7.55767 21.1214 7.69443 21.2572C7.83119 21.393 7.90868 21.5774 7.91 21.7701V22.1351H3.545V21.7701ZM24.275 24.27H1.725V23.5901C1.72632 23.3973 1.80381 23.2129 1.94057 23.0771C2.07733 22.9413 2.26226 22.8651 2.455 22.8651H23.545C23.7377 22.8651 23.9227 22.9413 24.0594 23.0771C24.1962 23.2129 24.2737 23.3973 24.275 23.5901V24.27ZM13 7.12579C13.3424 7.12678 13.6773 7.02616 13.9625 6.83668C14.2476 6.6472 14.4702 6.37737 14.6019 6.06135C14.7336 5.74534 14.7686 5.39735 14.7024 5.06145C14.6362 4.72555 14.4718 4.41684 14.2301 4.17441C13.9883 3.93197 13.6801 3.76671 13.3444 3.69956C13.0086 3.6324 12.6605 3.66637 12.3441 3.79715C12.0277 3.92794 11.7572 4.14966 11.5669 4.43426C11.3766 4.71885 11.275 5.05351 11.275 5.39587C11.2763 5.8534 11.4583 6.2919 11.7814 6.6159C12.1045 6.93989 12.5424 7.12316 13 7.12579ZM13 4.39591C13.1978 4.39591 13.3911 4.45456 13.5556 4.56443C13.72 4.67431 13.8482 4.83048 13.9239 5.0132C13.9996 5.19592 14.0194 5.39698 13.9808 5.59095C13.9422 5.78492 13.847 5.9631 13.7071 6.10294C13.5673 6.24279 13.3891 6.33803 13.1951 6.37661C13.0011 6.41519 12.8 6.39539 12.6173 6.31971C12.4346 6.24402 12.2784 6.11585 12.1685 5.95141C12.0587 5.78697 12 5.59364 12 5.39587C12 5.13066 12.1054 4.87632 12.2929 4.68879C12.4804 4.50126 12.7348 4.39591 13 4.39591Z"/>
</mask>
<path d="M23.545 22.1351H23.185V21.7701C23.1837 21.4484 23.0754 21.1362 22.8772 20.8827C22.6789 20.6293 22.402 20.449 22.09 20.3702V10.7506C22.402 10.6719 22.6789 10.4915 22.8772 10.2381C23.0754 9.98465 23.1837 9.67246 23.185 9.35069V9.00071H24.635C24.7142 9.00048 24.7912 8.97451 24.8543 8.92671C24.9174 8.87891 24.9633 8.81188 24.985 8.73572C25.0062 8.65979 25.0026 8.57906 24.9747 8.50531C24.9469 8.43156 24.8962 8.36864 24.83 8.32574L13.19 1.05606C13.1334 1.01947 13.0674 1 13 1C12.9326 1 12.8666 1.01947 12.81 1.05606L1.17 8.31074C1.10385 8.35364 1.05314 8.41656 1.02525 8.49031C0.997371 8.56406 0.993779 8.64479 1.015 8.72072C1.0367 8.79688 1.08257 8.86391 1.14571 8.91171C1.20884 8.95951 1.28581 8.98548 1.365 8.98571H2.815V9.35069C2.8163 9.67246 2.9246 9.98465 3.12285 10.2381C3.32109 10.4915 3.59801 10.6719 3.91 10.7506V20.3702C3.59801 20.449 3.32109 20.6293 3.12285 20.8827C2.9246 21.1362 2.8163 21.4484 2.815 21.7701V22.1351H2.455C2.06911 22.1351 1.69903 22.2884 1.42616 22.5613C1.15329 22.8341 1 23.2042 1 23.5901L1 24.635C1 24.7318 1.03846 24.8247 1.10691 24.8931C1.17536 24.9615 1.2682 25 1.365 25H24.635C24.7318 25 24.8246 24.9615 24.8931 24.8931C24.9615 24.8247 25 24.7318 25 24.635V23.5901C25 23.399 24.9624 23.2098 24.8892 23.0333C24.8161 22.8568 24.709 22.6964 24.5738 22.5613C24.4387 22.4262 24.2783 22.319 24.1018 22.2459C23.9253 22.1728 23.7361 22.1351 23.545 22.1351ZM22.455 21.7701V22.1351H18.09V21.7701C18.0913 21.5774 18.1688 21.393 18.3056 21.2572C18.4423 21.1214 18.6273 21.0452 18.82 21.0452H21.73C21.9223 21.0452 22.1067 21.1216 22.2427 21.2575C22.3786 21.3935 22.455 21.5779 22.455 21.7701ZM7.545 20.3702V10.7506C7.85606 10.6709 8.13186 10.4902 8.32913 10.2368C8.5264 9.98347 8.63398 9.67179 8.635 9.35069V9.00071H10.09V9.36569C10.091 9.68679 10.1986 9.99847 10.3959 10.2518C10.5931 10.5052 10.8689 10.6859 11.18 10.7656V20.3702C10.8689 20.4499 10.5931 20.6306 10.3959 20.884C10.1986 21.1374 10.091 21.449 10.09 21.7701V22.1351H8.635V21.7701C8.63398 21.449 8.5264 21.1374 8.32913 20.884C8.13186 20.6306 7.85606 20.4499 7.545 20.3702ZM6.815 10.8006V20.3002H4.635V10.8006H6.815ZM11.91 10.8006H14.09V20.3002H11.91V10.8006ZM14.455 10.0757H11.545C11.3527 10.0757 11.1683 9.99928 11.0323 9.86332C10.8964 9.72736 10.82 9.54297 10.82 9.35069V9.00071H15.18V9.36569C15.1761 9.55535 15.098 9.73592 14.9624 9.86865C14.8269 10.0014 14.6447 10.0757 14.455 10.0757ZM10.82 21.7701C10.82 21.5779 10.8964 21.3935 11.0323 21.2575C11.1683 21.1216 11.3527 21.0452 11.545 21.0452H14.455C14.5506 21.0452 14.6453 21.0641 14.7336 21.1008C14.8219 21.1376 14.902 21.1914 14.9694 21.2593C15.0368 21.3271 15.0901 21.4076 15.1263 21.4962C15.1624 21.5847 15.1807 21.6795 15.18 21.7751V22.1351H10.82V21.7701ZM14.82 20.3702V10.7506C15.1311 10.6709 15.4069 10.4902 15.6041 10.2368C15.8014 9.98347 15.909 9.67179 15.91 9.35069V9.00071H17.365V9.36569C17.366 9.68679 17.4736 9.99847 17.6709 10.2518C17.8681 10.5052 18.1439 10.6859 18.455 10.7656V20.3702C18.1439 20.4499 17.8681 20.6306 17.6709 20.884C17.4736 21.1374 17.366 21.449 17.365 21.7701V22.1351H15.91V21.7701C15.909 21.449 15.8014 21.1374 15.6041 20.884C15.4069 20.6306 15.1311 20.4499 14.82 20.3702ZM19.18 20.3202V10.8206H21.365V20.3202H19.18ZM22.455 9.35069C22.455 9.4459 22.4362 9.54017 22.3998 9.62813C22.3634 9.71608 22.31 9.796 22.2427 9.86332C22.1753 9.93064 22.0954 9.98404 22.0074 10.0205C21.9195 10.0569 21.8252 10.0757 21.73 10.0757H18.82C18.6273 10.0757 18.4423 9.99944 18.3056 9.86363C18.1688 9.72781 18.0913 9.54342 18.09 9.35069V9.00071H22.455V9.35069ZM3.18 8.25574H2.635L13 1.79103L23.365 8.25574H3.18ZM3.545 9.35069V9.00071H7.91V9.36569C7.90868 9.55842 7.83119 9.74281 7.69443 9.87863C7.55767 10.0144 7.37274 10.0907 7.18 10.0907H4.27C4.17352 10.0907 4.078 10.0714 3.98905 10.0341C3.90009 9.99671 3.81949 9.94196 3.75197 9.87305C3.68445 9.80413 3.63136 9.72243 3.59582 9.63273C3.56028 9.54304 3.543 9.44715 3.545 9.35069ZM3.545 21.7701C3.545 21.5779 3.62138 21.3935 3.75735 21.2575C3.89331 21.1216 4.07772 21.0452 4.27 21.0452H7.18C7.37274 21.0452 7.55767 21.1214 7.69443 21.2572C7.83119 21.393 7.90868 21.5774 7.91 21.7701V22.1351H3.545V21.7701ZM24.275 24.27H1.725V23.5901C1.72632 23.3973 1.80381 23.2129 1.94057 23.0771C2.07733 22.9413 2.26226 22.8651 2.455 22.8651H23.545C23.7377 22.8651 23.9227 22.9413 24.0594 23.0771C24.1962 23.2129 24.2737 23.3973 24.275 23.5901V24.27ZM13 7.12579C13.3424 7.12678 13.6773 7.02616 13.9625 6.83668C14.2476 6.6472 14.4702 6.37737 14.6019 6.06135C14.7336 5.74534 14.7686 5.39735 14.7024 5.06145C14.6362 4.72555 14.4718 4.41684 14.2301 4.17441C13.9883 3.93197 13.6801 3.76671 13.3444 3.69956C13.0086 3.6324 12.6605 3.66637 12.3441 3.79715C12.0277 3.92794 11.7572 4.14966 11.5669 4.43426C11.3766 4.71885 11.275 5.05351 11.275 5.39587C11.2763 5.8534 11.4583 6.2919 11.7814 6.6159C12.1045 6.93989 12.5424 7.12316 13 7.12579ZM13 4.39591C13.1978 4.39591 13.3911 4.45456 13.5556 4.56443C13.72 4.67431 13.8482 4.83048 13.9239 5.0132C13.9996 5.19592 14.0194 5.39698 13.9808 5.59095C13.9422 5.78492 13.847 5.9631 13.7071 6.10294C13.5673 6.24279 13.3891 6.33803 13.1951 6.37661C13.0011 6.41519 12.8 6.39539 12.6173 6.31971C12.4346 6.24402 12.2784 6.11585 12.1685 5.95141C12.0587 5.78697 12 5.59364 12 5.39587C12 5.13066 12.1054 4.87632 12.2929 4.68879C12.4804 4.50126 12.7348 4.39591 13 4.39591Z" fill="#798291"/>
<path d="M23.545 22.1351H23.185V21.7701C23.1837 21.4484 23.0754 21.1362 22.8772 20.8827C22.6789 20.6293 22.402 20.449 22.09 20.3702V10.7506C22.402 10.6719 22.6789 10.4915 22.8772 10.2381C23.0754 9.98465 23.1837 9.67246 23.185 9.35069V9.00071H24.635C24.7142 9.00048 24.7912 8.97451 24.8543 8.92671C24.9174 8.87891 24.9633 8.81188 24.985 8.73572C25.0062 8.65979 25.0026 8.57906 24.9747 8.50531C24.9469 8.43156 24.8962 8.36864 24.83 8.32574L13.19 1.05606C13.1334 1.01947 13.0674 1 13 1C12.9326 1 12.8666 1.01947 12.81 1.05606L1.17 8.31074C1.10385 8.35364 1.05314 8.41656 1.02525 8.49031C0.997371 8.56406 0.993779 8.64479 1.015 8.72072C1.0367 8.79688 1.08257 8.86391 1.14571 8.91171C1.20884 8.95951 1.28581 8.98548 1.365 8.98571H2.815V9.35069C2.8163 9.67246 2.9246 9.98465 3.12285 10.2381C3.32109 10.4915 3.59801 10.6719 3.91 10.7506V20.3702C3.59801 20.449 3.32109 20.6293 3.12285 20.8827C2.9246 21.1362 2.8163 21.4484 2.815 21.7701V22.1351H2.455C2.06911 22.1351 1.69903 22.2884 1.42616 22.5613C1.15329 22.8341 1 23.2042 1 23.5901L1 24.635C1 24.7318 1.03846 24.8247 1.10691 24.8931C1.17536 24.9615 1.2682 25 1.365 25H24.635C24.7318 25 24.8246 24.9615 24.8931 24.8931C24.9615 24.8247 25 24.7318 25 24.635V23.5901C25 23.399 24.9624 23.2098 24.8892 23.0333C24.8161 22.8568 24.709 22.6964 24.5738 22.5613C24.4387 22.4262 24.2783 22.319 24.1018 22.2459C23.9253 22.1728 23.7361 22.1351 23.545 22.1351ZM22.455 21.7701V22.1351H18.09V21.7701C18.0913 21.5774 18.1688 21.393 18.3056 21.2572C18.4423 21.1214 18.6273 21.0452 18.82 21.0452H21.73C21.9223 21.0452 22.1067 21.1216 22.2427 21.2575C22.3786 21.3935 22.455 21.5779 22.455 21.7701ZM7.545 20.3702V10.7506C7.85606 10.6709 8.13186 10.4902 8.32913 10.2368C8.5264 9.98347 8.63398 9.67179 8.635 9.35069V9.00071H10.09V9.36569C10.091 9.68679 10.1986 9.99847 10.3959 10.2518C10.5931 10.5052 10.8689 10.6859 11.18 10.7656V20.3702C10.8689 20.4499 10.5931 20.6306 10.3959 20.884C10.1986 21.1374 10.091 21.449 10.09 21.7701V22.1351H8.635V21.7701C8.63398 21.449 8.5264 21.1374 8.32913 20.884C8.13186 20.6306 7.85606 20.4499 7.545 20.3702ZM6.815 10.8006V20.3002H4.635V10.8006H6.815ZM11.91 10.8006H14.09V20.3002H11.91V10.8006ZM14.455 10.0757H11.545C11.3527 10.0757 11.1683 9.99928 11.0323 9.86332C10.8964 9.72736 10.82 9.54297 10.82 9.35069V9.00071H15.18V9.36569C15.1761 9.55535 15.098 9.73592 14.9624 9.86865C14.8269 10.0014 14.6447 10.0757 14.455 10.0757ZM10.82 21.7701C10.82 21.5779 10.8964 21.3935 11.0323 21.2575C11.1683 21.1216 11.3527 21.0452 11.545 21.0452H14.455C14.5506 21.0452 14.6453 21.0641 14.7336 21.1008C14.8219 21.1376 14.902 21.1914 14.9694 21.2593C15.0368 21.3271 15.0901 21.4076 15.1263 21.4962C15.1624 21.5847 15.1807 21.6795 15.18 21.7751V22.1351H10.82V21.7701ZM14.82 20.3702V10.7506C15.1311 10.6709 15.4069 10.4902 15.6041 10.2368C15.8014 9.98347 15.909 9.67179 15.91 9.35069V9.00071H17.365V9.36569C17.366 9.68679 17.4736 9.99847 17.6709 10.2518C17.8681 10.5052 18.1439 10.6859 18.455 10.7656V20.3702C18.1439 20.4499 17.8681 20.6306 17.6709 20.884C17.4736 21.1374 17.366 21.449 17.365 21.7701V22.1351H15.91V21.7701C15.909 21.449 15.8014 21.1374 15.6041 20.884C15.4069 20.6306 15.1311 20.4499 14.82 20.3702ZM19.18 20.3202V10.8206H21.365V20.3202H19.18ZM22.455 9.35069C22.455 9.4459 22.4362 9.54017 22.3998 9.62813C22.3634 9.71608 22.31 9.796 22.2427 9.86332C22.1753 9.93064 22.0954 9.98404 22.0074 10.0205C21.9195 10.0569 21.8252 10.0757 21.73 10.0757H18.82C18.6273 10.0757 18.4423 9.99944 18.3056 9.86363C18.1688 9.72781 18.0913 9.54342 18.09 9.35069V9.00071H22.455V9.35069ZM3.18 8.25574H2.635L13 1.79103L23.365 8.25574H3.18ZM3.545 9.35069V9.00071H7.91V9.36569C7.90868 9.55842 7.83119 9.74281 7.69443 9.87863C7.55767 10.0144 7.37274 10.0907 7.18 10.0907H4.27C4.17352 10.0907 4.078 10.0714 3.98905 10.0341C3.90009 9.99671 3.81949 9.94196 3.75197 9.87305C3.68445 9.80413 3.63136 9.72243 3.59582 9.63273C3.56028 9.54304 3.543 9.44715 3.545 9.35069ZM3.545 21.7701C3.545 21.5779 3.62138 21.3935 3.75735 21.2575C3.89331 21.1216 4.07772 21.0452 4.27 21.0452H7.18C7.37274 21.0452 7.55767 21.1214 7.69443 21.2572C7.83119 21.393 7.90868 21.5774 7.91 21.7701V22.1351H3.545V21.7701ZM24.275 24.27H1.725V23.5901C1.72632 23.3973 1.80381 23.2129 1.94057 23.0771C2.07733 22.9413 2.26226 22.8651 2.455 22.8651H23.545C23.7377 22.8651 23.9227 22.9413 24.0594 23.0771C24.1962 23.2129 24.2737 23.3973 24.275 23.5901V24.27ZM13 7.12579C13.3424 7.12678 13.6773 7.02616 13.9625 6.83668C14.2476 6.6472 14.4702 6.37737 14.6019 6.06135C14.7336 5.74534 14.7686 5.39735 14.7024 5.06145C14.6362 4.72555 14.4718 4.41684 14.2301 4.17441C13.9883 3.93197 13.6801 3.76671 13.3444 3.69956C13.0086 3.6324 12.6605 3.66637 12.3441 3.79715C12.0277 3.92794 11.7572 4.14966 11.5669 4.43426C11.3766 4.71885 11.275 5.05351 11.275 5.39587C11.2763 5.8534 11.4583 6.2919 11.7814 6.6159C12.1045 6.93989 12.5424 7.12316 13 7.12579ZM13 4.39591C13.1978 4.39591 13.3911 4.45456 13.5556 4.56443C13.72 4.67431 13.8482 4.83048 13.9239 5.0132C13.9996 5.19592 14.0194 5.39698 13.9808 5.59095C13.9422 5.78492 13.847 5.9631 13.7071 6.10294C13.5673 6.24279 13.3891 6.33803 13.1951 6.37661C13.0011 6.41519 12.8 6.39539 12.6173 6.31971C12.4346 6.24402 12.2784 6.11585 12.1685 5.95141C12.0587 5.78697 12 5.59364 12 5.39587C12 5.13066 12.1054 4.87632 12.2929 4.68879C12.4804 4.50126 12.7348 4.39591 13 4.39591Z" stroke="#798291" stroke-width="0.4" mask="url(#path-1-outside-1_408_1466)"/>
</svg>
