<svg width="25" height="25" viewBox="0 0 25 25" fill="none" xmlns="http://www.w3.org/2000/svg">
<g clip-path="url(#clip0_1_1285)">
<g clip-path="url(#clip1_1_1285)">
<path d="M15.7588 6.51239C15.6681 6.51532 15.5802 6.5449 15.5062 6.59745C15.4321 6.65 15.3752 6.72319 15.3425 6.80788C15.3097 6.89258 15.3027 6.98504 15.3222 7.07372C15.3417 7.1624 15.3868 7.24338 15.4521 7.30655C15.5173 7.36973 15.5996 7.4123 15.6889 7.42897C15.7781 7.44563 15.8703 7.43564 15.9539 7.40026C16.0376 7.36487 16.1089 7.30564 16.1591 7.22997C16.2092 7.15429 16.236 7.06552 16.2361 6.97472C16.2361 6.91273 16.2237 6.85137 16.1995 6.79428C16.1753 6.73719 16.14 6.68555 16.0954 6.64242C16.0509 6.59928 15.9982 6.56554 15.9403 6.54321C15.8825 6.52087 15.8208 6.51039 15.7588 6.51239Z" fill="#798291"/>
<path d="M20.9042 4.09606C18.6781 1.85903 15.6633 0.584551 12.5076 0.546509C10.9401 0.558965 9.39046 0.880177 7.94716 1.49179C6.50387 2.10339 5.19524 2.99341 4.09606 4.11098C1.8499 6.31996 0.568549 9.32764 0.531586 12.4778C0.544042 14.0453 0.865251 15.5949 1.47686 17.0382C2.08847 18.4815 2.97849 19.7902 4.09606 20.8893C6.32064 23.1395 9.34359 24.4205 12.5076 24.4538C14.5881 24.4234 16.6258 23.8587 18.4252 22.8141C20.2247 21.7694 21.7254 20.2798 22.7834 18.4882C23.8697 16.6866 24.4517 14.6262 24.4687 12.5225C24.4582 10.9525 24.1379 9.40004 23.5263 7.95405C22.9146 6.50806 22.0236 5.19702 20.9042 4.09606ZM11.9558 21.5306V23.4546C10.3584 23.3699 8.79971 22.9318 7.39207 22.172L8.34657 20.5165C9.47708 21.1143 10.7236 21.4603 12.0005 21.5306H11.9558ZM4.49873 16.609L2.85818 17.5635C2.10482 16.1845 1.66197 14.6574 1.56065 13.0893H3.49949C3.58196 14.3177 3.91706 15.516 4.48381 16.609H4.49873ZM5.02072 7.54122L3.36526 6.58672C4.22154 5.31039 5.32136 4.21565 6.60162 3.36527L7.52629 5.02074C6.53347 5.69295 5.67802 6.5484 5.00582 7.54122H5.02072ZM1.56065 12.0155C1.65115 10.4218 2.09433 8.86819 2.85818 7.46665L4.49873 8.42115C3.91683 9.53574 3.57635 10.7605 3.49949 12.0155H1.56065ZM5.02072 17.4889C5.68431 18.4929 6.54112 19.3548 7.54121 20.0243L6.60162 21.6649C5.31598 20.816 4.211 19.7212 3.35035 18.4434L5.02072 17.4889ZM19.9348 7.55614C19.2857 6.56022 18.4501 5.69927 17.474 5.02074L18.4136 3.36527C19.6971 4.21162 20.7977 5.30709 21.6499 6.58672L19.9348 7.55614ZM17.5038 2.85819L16.5493 4.51366C15.4483 3.94006 14.2389 3.60468 12.9998 3.52933V1.5905C14.5948 1.66597 16.1534 2.09382 17.5635 2.84328L17.5038 2.85819ZM20.5274 12.5289C20.5304 14.1201 20.0203 15.67 19.1381 16.9942C18.2559 18.3184 17.0006 19.3511 15.5311 19.9614C14.0616 20.5716 12.4441 20.7321 10.8833 20.4224C9.3226 20.1127 7.88888 19.3468 6.76375 18.2217C5.63862 17.0965 4.8727 15.6628 4.563 14.102C4.2533 12.5413 4.41374 10.9238 5.02402 9.45427C5.6343 7.98479 6.66696 6.72946 7.9912 5.84729C9.31544 4.96513 10.8717 4.4958 12.4629 4.49875C14.5827 4.51395 16.6126 5.35669 18.1199 6.84727C19.6272 8.33784 20.4925 10.3583 20.5314 12.4778L20.5274 12.5289ZM18.3688 21.6649L17.4293 20.0243C18.4261 19.3509 19.2822 18.4897 19.9497 17.4889L21.6052 18.4434C20.7645 19.7133 19.6796 20.8033 18.4136 21.65L18.3688 21.6649ZM12.955 21.5456C14.2167 21.4689 15.4473 21.1231 16.5642 20.5314L17.5187 22.1869C16.1111 22.9467 14.5524 23.3848 12.955 23.4695V21.5456ZM23.3949 13.0296C23.2936 14.5977 22.8507 16.1248 22.0974 17.5038L20.4568 16.5493C21.0387 15.4347 21.3792 14.21 21.4561 12.955L23.3949 13.0296ZM23.3949 12.0155H21.4561C21.3792 10.7605 21.0387 9.53574 20.4568 8.42115L22.0974 7.46665C22.8799 8.8588 23.3435 10.4074 23.4546 12.0005L23.3949 12.0155ZM12.0005 3.52933C10.7399 3.60095 9.50926 3.94167 8.39131 4.52857L7.43681 2.87311C8.84445 2.11326 10.4031 1.67519 12.0005 1.5905V3.52933Z" fill="#798291"/>
<path d="M19.2043 10.5088C18.8881 9.46807 18.337 8.51387 17.5936 7.7199C17.5085 7.62892 17.3908 7.57545 17.2664 7.57126C17.1419 7.56706 17.0209 7.61248 16.9299 7.69753C16.8389 7.78257 16.7854 7.90027 16.7812 8.02473C16.777 8.14919 16.8225 8.27023 16.9075 8.36121C17.5594 9.04427 18.0399 9.87233 18.3094 10.7773C18.3265 10.8364 18.3552 10.8915 18.3938 10.9394C18.4325 10.9873 18.4803 11.027 18.5344 11.0561C18.5886 11.0853 18.6481 11.1034 18.7093 11.1093C18.7705 11.1152 18.8323 11.1088 18.8911 11.0905C19.0082 11.0526 19.1062 10.971 19.1646 10.8626C19.2229 10.7542 19.2372 10.6275 19.2043 10.5088Z" fill="#798291"/>
<path d="M17.1608 11.1061C16.8719 11.1083 16.5907 11.1998 16.3558 11.368C16.1209 11.5362 15.9436 11.7729 15.8483 12.0456H14.7894C14.6952 11.5986 14.473 11.1886 14.15 10.8656C13.8269 10.5426 13.4169 10.3204 12.9699 10.2261V9.16722C13.2813 9.05647 13.5435 8.83928 13.7104 8.55399C13.8772 8.2687 13.9378 7.93365 13.8816 7.60798C13.8255 7.28232 13.656 6.98697 13.4032 6.77407C13.1505 6.56118 12.8306 6.44443 12.5001 6.44443C12.1696 6.44443 11.8498 6.56118 11.597 6.77407C11.3443 6.98697 11.1748 7.28232 11.1186 7.60798C11.0624 7.93365 11.1231 8.2687 11.2899 8.55399C11.4567 8.83928 11.719 9.05647 12.0303 9.16722V10.2261C11.5833 10.3204 11.1733 10.5426 10.8503 10.8656C10.5273 11.1886 10.3051 11.5986 10.2108 12.0456H9.15192C9.05732 11.8099 8.90041 11.6042 8.698 11.4507C8.49558 11.2972 8.25525 11.2015 8.00269 11.174C7.75013 11.1465 7.49484 11.1881 7.2641 11.2944C7.03337 11.4007 6.83586 11.5678 6.6927 11.7776C6.54953 11.9875 6.46607 12.2324 6.45127 12.486C6.43646 12.7396 6.49086 12.9925 6.60863 13.2176C6.7264 13.4427 6.90313 13.6316 7.11993 13.764C7.33672 13.8965 7.58543 13.9675 7.83947 13.9696C8.12946 13.9717 8.41268 13.882 8.64848 13.7132C8.88427 13.5444 9.06052 13.3052 9.15192 13.03H10.2108C10.3015 13.4786 10.5225 13.8905 10.8461 14.2142C11.1698 14.5378 11.5817 14.7588 12.0303 14.8495V15.9084C11.7649 16.0172 11.5364 16.2004 11.3724 16.4358C11.2084 16.6712 11.1158 16.949 11.1057 17.2357C11.1414 17.5807 11.3037 17.9002 11.5613 18.1325C11.8188 18.3647 12.1533 18.4933 12.5001 18.4933C12.8469 18.4933 13.1814 18.3647 13.439 18.1325C13.6966 17.9002 13.8589 17.5807 13.8946 17.2357C13.8845 16.949 13.7919 16.6712 13.6279 16.4358C13.4638 16.2004 13.2354 16.0172 12.9699 15.9084V14.8495C13.4186 14.7588 13.8305 14.5378 14.1541 14.2142C14.4778 13.8905 14.6988 13.4786 14.7894 13.03H15.8483C15.9417 13.3039 16.1185 13.5418 16.3538 13.7103C16.5892 13.8788 16.8713 13.9695 17.1608 13.9696C17.5326 13.9696 17.8892 13.8219 18.1521 13.5589C18.415 13.296 18.5627 12.9395 18.5627 12.5676C18.5627 12.1958 18.415 11.8392 18.1521 11.5763C17.8892 11.3134 17.5326 11.1657 17.1608 11.1657V11.1061ZM7.83947 12.9703C7.74803 12.9703 7.65864 12.9432 7.58261 12.8924C7.50658 12.8416 7.44733 12.7694 7.41233 12.6849C7.37734 12.6004 7.36819 12.5075 7.38603 12.4178C7.40387 12.3281 7.4479 12.2457 7.51256 12.1811C7.57721 12.1164 7.65959 12.0724 7.74928 12.0545C7.83896 12.0367 7.93193 12.0458 8.01641 12.0808C8.10089 12.1158 8.1731 12.1751 8.2239 12.2511C8.2747 12.3271 8.30182 12.4165 8.30182 12.508C8.30182 12.6306 8.25311 12.7482 8.1664 12.8349C8.0797 12.9216 7.96209 12.9703 7.83947 12.9703ZM12.5076 7.37753C12.602 7.37753 12.6943 7.40552 12.7727 7.45796C12.8512 7.5104 12.9124 7.58494 12.9485 7.67214C12.9846 7.75935 12.9941 7.85531 12.9757 7.94788C12.9573 8.04046 12.9118 8.1255 12.8451 8.19225C12.7783 8.25899 12.6933 8.30444 12.6007 8.32286C12.5081 8.34127 12.4122 8.33182 12.325 8.2957C12.2378 8.25958 12.1632 8.19841 12.1108 8.11992C12.0583 8.04144 12.0303 7.94917 12.0303 7.85478C12.0283 7.79154 12.0392 7.72856 12.0624 7.66972C12.0857 7.61087 12.1208 7.55743 12.1655 7.51269C12.2102 7.46795 12.2637 7.43288 12.3225 7.40963C12.3814 7.38638 12.4444 7.37545 12.5076 7.37753ZM12.5076 17.6384C12.412 17.6414 12.3177 17.6155 12.237 17.5642C12.1563 17.513 12.0928 17.4386 12.0548 17.3508C12.0169 17.263 12.0062 17.1658 12.0241 17.0719C12.0421 16.978 12.0878 16.8916 12.1554 16.8239C12.2231 16.7563 12.3095 16.7106 12.4034 16.6926C12.4973 16.6747 12.5945 16.6854 12.6823 16.7233C12.7701 16.7613 12.8445 16.8248 12.8957 16.9055C12.947 16.9862 12.9729 17.0805 12.9699 17.1761C12.9699 17.2987 12.9212 17.4163 12.8345 17.503C12.7478 17.5897 12.6302 17.6384 12.5076 17.6384ZM12.5076 13.9099C12.2297 13.9129 11.9572 13.8332 11.7247 13.6809C11.4922 13.5287 11.3102 13.3108 11.2018 13.0549C11.0934 12.799 11.0635 12.5167 11.1159 12.2437C11.1683 11.9708 11.3006 11.7196 11.4961 11.5221C11.6915 11.3245 11.9413 11.1895 12.2136 11.1342C12.486 11.0789 12.7686 11.1057 13.0257 11.2114C13.2827 11.3171 13.5025 11.4967 13.6573 11.7276C13.812 11.9584 13.8946 12.2301 13.8946 12.508C13.9026 12.6958 13.8728 12.8833 13.8068 13.0593C13.7409 13.2354 13.6403 13.3964 13.5109 13.5327C13.3815 13.6691 13.226 13.778 13.0536 13.8531C12.8813 13.9281 12.6956 13.9677 12.5076 13.9696V13.9099ZM17.1608 12.9703C17.0693 12.9703 16.98 12.9432 16.9039 12.8924C16.8279 12.8416 16.7686 12.7694 16.7336 12.6849C16.6987 12.6004 16.6895 12.5075 16.7073 12.4178C16.7252 12.3281 16.7692 12.2457 16.8339 12.1811C16.8985 12.1164 16.9809 12.0724 17.0706 12.0545C17.1603 12.0367 17.2532 12.0458 17.3377 12.0808C17.4222 12.1158 17.4944 12.1751 17.5452 12.2511C17.596 12.3271 17.6231 12.4165 17.6231 12.508C17.6231 12.6306 17.5744 12.7482 17.4877 12.8349C17.401 12.9216 17.2834 12.9703 17.1608 12.9703Z" fill="#798291"/>
</g>
</g>
<defs>
<clipPath id="clip0_1_1285">
<rect width="24" height="24" fill="white" transform="translate(0.5 0.5)"/>
</clipPath>
<clipPath id="clip1_1_1285">
<rect width="24" height="24" fill="white" transform="translate(0.5 0.5)"/>
</clipPath>
</defs>
</svg>
