<svg width="16" height="17" viewBox="0 0 16 17" fill="none" xmlns="http://www.w3.org/2000/svg">
<g clip-path="url(#clip0_10_1584)">
<path d="M14.5 5.5H12.975C12.8512 4.26657 12.2736 3.12311 11.3543 2.29149C10.4351 1.45986 9.23963 0.999374 8 0.999374C6.76037 0.999374 5.56494 1.45986 4.64567 2.29149C3.72639 3.12311 3.14881 4.26657 3.025 5.5H1.5C1.10218 5.5 0.720644 5.65804 0.43934 5.93934C0.158035 6.22065 0 6.60218 0 7L0 14.5C0 14.8978 0.158035 15.2794 0.43934 15.5607C0.720644 15.842 1.10218 16 1.5 16H14.5C14.8978 16 15.2794 15.842 15.5607 15.5607C15.842 15.2794 16 14.8978 16 14.5V7C16 6.60218 15.842 6.22065 15.5607 5.93934C15.2794 5.65804 14.8978 5.5 14.5 5.5ZM12.3225 8.5C12.4422 8.51753 12.5515 8.57786 12.6301 8.6698C12.7087 8.76173 12.7513 8.87905 12.75 9C12.75 9.13261 12.6973 9.25979 12.6036 9.35356C12.5098 9.44732 12.3826 9.5 12.25 9.5H11.5675C11.8599 9.19946 12.1135 8.86352 12.3225 8.5ZM8 2C9.06087 2 10.0783 2.42143 10.8284 3.17157C11.5786 3.92172 12 4.93913 12 6C12.0015 6.61697 11.8585 7.22571 11.5825 7.7775C11.2198 8.50647 10.6433 9.1074 9.93 9.5H6.07C5.3567 9.1074 4.78019 8.50647 4.4175 7.7775C4.14151 7.22571 3.99853 6.61697 4 6C4 4.93913 4.42143 3.92172 5.17157 3.17157C5.92172 2.42143 6.93913 2 8 2ZM3.6775 8.5C3.88493 8.86324 4.13687 9.19917 4.4275 9.5H3.75C3.61739 9.5 3.49021 9.44732 3.39645 9.35356C3.30268 9.25979 3.25 9.13261 3.25 9C3.24923 8.86832 3.30044 8.74165 3.3925 8.6475C3.46926 8.56909 3.56916 8.51739 3.6775 8.5ZM15 14.5C15 14.6326 14.9473 14.7598 14.8536 14.8536C14.7598 14.9473 14.6326 15 14.5 15H1.5C1.36739 15 1.24021 14.9473 1.14645 14.8536C1.05268 14.7598 1 14.6326 1 14.5V7C1 6.86739 1.05268 6.74022 1.14645 6.64645C1.24021 6.55268 1.36739 6.5 1.5 6.5H3.025C3.05863 6.86903 3.13411 7.23303 3.25 7.585C2.95742 7.68844 2.70413 7.88008 2.52503 8.13351C2.34593 8.38694 2.24984 8.68968 2.25 9C2.25 9.39783 2.40804 9.77936 2.68934 10.0607C2.97064 10.342 3.35218 10.5 3.75 10.5H12.25C12.6042 10.5005 12.9472 10.3757 13.2182 10.1475C13.4892 9.91941 13.6708 9.60273 13.7306 9.25359C13.7905 8.90445 13.7249 8.54538 13.5454 8.23998C13.3659 7.93458 13.0842 7.70255 12.75 7.585C12.8659 7.23303 12.9414 6.86903 12.975 6.5H14.5C14.6326 6.5 14.7598 6.55268 14.8536 6.64645C14.9473 6.74022 15 6.86739 15 7V14.5Z" fill="white"/>
<path d="M13.5 14C13.7761 14 14 13.7761 14 13.5C14 13.2239 13.7761 13 13.5 13C13.2239 13 13 13.2239 13 13.5C13 13.7761 13.2239 14 13.5 14Z" fill="white"/>
<path d="M11.5 14C11.7761 14 12 13.7761 12 13.5C12 13.2239 11.7761 13 11.5 13C11.2239 13 11 13.2239 11 13.5C11 13.7761 11.2239 14 11.5 14Z" fill="white"/>
<path d="M9.43915 4.28668C9.5045 4.28668 9.55747 4.2315 9.55747 4.16343V3.7526C9.55747 3.68453 9.5045 3.62935 9.43915 3.62935H6.52059C6.45525 3.62935 6.40227 3.68453 6.40227 3.7526V4.2122C6.40227 4.28026 6.45525 4.33545 6.52059 4.33545H7.36145C7.63071 4.33545 7.8373 4.43773 7.96262 4.61535H6.52059C6.45525 4.61535 6.40227 4.67054 6.40227 4.7386V5.14944C6.40227 5.2175 6.45525 5.27269 6.52059 5.27269H8.08594C8.02464 5.64332 7.76094 5.87489 7.34883 5.87489H6.52059C6.45525 5.87489 6.40227 5.93007 6.40227 5.99814V6.54262C6.40227 6.57701 6.41607 6.60985 6.44034 6.63319L8.06775 8.19801C8.08961 8.21903 8.11826 8.23069 8.148 8.2307H8.96207C9.06978 8.2307 9.12146 8.09298 9.04232 8.01688L7.55462 6.58639C8.3089 6.56236 8.8477 6.03798 8.91844 5.27269H9.43915C9.5045 5.27269 9.55747 5.2175 9.55747 5.14944V4.7386C9.55747 4.67054 9.5045 4.61535 9.43915 4.61535H8.86047C8.8261 4.49682 8.77883 4.38687 8.71994 4.28668H9.43915Z" fill="white"/>
</g>
<defs>
<clipPath id="clip0_10_1584">
<rect width="16" height="16" fill="white" transform="translate(0 0.5)"/>
</clipPath>
</defs>
</svg>
