<svg width="221" height="121" viewBox="0 0 221 121" fill="none" xmlns="http://www.w3.org/2000/svg">
<path d="M210.755 118C210.755 103.817 209.576 89.6032 204.5 76.5C199.5 63 192.879 52.0287 183.5 42C174.5 32.5 161.905 23.6485 149.651 18.221C137.397 12.7935 124.264 10.5 111 10.5C97.5 10.5 84.5 13 72.5 18C60.1511 22.779 47.3787 31.4713 38 41.5C28.6213 51.5287 21 63.5 16.5 76.5C11.4243 89.6032 10.5 103.817 10.5 118H111H210.755Z" fill="white"/>
<g filter="url(#filter0_d_423_1452)">
<path d="M162.112 27.3493C162.799 26.4112 162.544 25.0859 161.545 24.4917C146.603 15.6043 129.148 10.5 110.5 10.5C90.225 10.5 71.3592 16.5336 55.6006 26.9034C54.6589 27.5231 54.4425 28.8047 55.1081 29.7146L80.6413 64.6152C81.268 65.4717 82.4525 65.6861 83.3627 65.1403C91.295 60.3844 100.578 57.6503 110.5 57.6503C118.882 57.6503 126.808 59.602 133.849 63.0749C134.743 63.5157 135.831 63.2711 136.42 62.4669L162.112 27.3493Z" fill="white"/>
<path d="M141.934 67.9925C140.999 67.3191 140.79 66.006 141.494 65.0943L167.852 30.9483C168.512 30.0932 169.734 29.9153 170.597 30.5651C194.334 48.4395 209.855 76.6431 210.48 108.498C210.502 109.602 209.605 110.5 208.5 110.5H169.947C168.843 110.5 167.953 109.603 167.892 108.5C166.974 91.8959 154.778 77.2494 141.934 67.9925Z" fill="white"/>
<path d="M12.5 110.5C11.3954 110.5 10.498 109.602 10.5196 108.498C11.114 78.234 25.1529 51.2653 46.9102 33.3186C47.7696 32.6097 49.0413 32.7668 49.7221 33.6487L76.1062 67.828C76.7704 68.6885 76.6257 69.9191 75.7948 70.6201C64.7927 79.9019 54 93.3903 53.1115 108.5C53.0467 109.603 52.1571 110.5 51.0526 110.5H12.5Z" fill="white"/>
</g>
<g clip-path="url(#clip0_423_1452)">
<ellipse cx="111.8" cy="39.3462" rx="5.86669" ry="6.15387" fill="#0CD0CD"/>
<path fill-rule="evenodd" clip-rule="evenodd" d="M110.243 25.5C107.473 25.5 104.528 26.5287 104.528 28.4359V30.7846C104.528 31.1087 104.761 31.3717 105.048 31.3717C105.335 31.3717 105.567 31.1087 105.567 30.7846V30.1727C106.67 30.9584 108.49 31.3717 110.243 31.3717C111.996 31.3717 113.816 30.9584 114.918 30.1727V30.7846C114.918 31.3067 113.862 32.1112 111.865 32.4234C112.701 32.4318 113.5 32.6035 114.235 32.9093C114.483 32.7878 114.713 32.6529 114.918 32.505V33.1333C114.918 33.1666 114.914 33.2009 114.906 33.236C115.279 33.4452 115.631 33.691 115.957 33.9688V28.4359C115.957 26.5287 113.013 25.5 110.243 25.5ZM108.741 33.2102C107.686 32.7725 106.348 32.5459 105.048 32.5459C102.278 32.5459 99.3333 33.5747 99.3333 35.4818V40.1792C99.3333 42.0864 102.278 43.1151 105.048 43.1151C105.44 43.1151 105.835 43.0945 106.225 43.0538C106.01 42.6978 105.824 42.3198 105.673 41.9237C105.47 41.9348 105.262 41.9407 105.048 41.9407C102.194 41.9407 100.372 40.8967 100.372 40.1792V39.5673C101.475 40.3529 103.295 40.7663 105.048 40.7663C105.145 40.7663 105.241 40.765 105.338 40.7625C105.263 40.3825 105.217 39.9911 105.204 39.591C105.152 39.5917 105.1 39.592 105.048 39.592C102.194 39.592 100.372 38.548 100.372 37.8305V37.2187C101.475 38.0043 103.295 38.4177 105.048 38.4177C105.118 38.4177 105.189 38.417 105.259 38.4157C105.311 38.0096 105.397 37.6146 105.513 37.2339C105.361 37.2401 105.206 37.2433 105.048 37.2433C102.194 37.2433 100.372 36.1993 100.372 35.4818C100.372 34.7643 102.194 33.7203 105.048 33.7203C106.02 33.7203 106.872 33.8413 107.573 34.0292C107.932 33.7149 108.323 33.4397 108.741 33.2102ZM110.243 30.1974C107.389 30.1974 105.567 29.1534 105.567 28.4359C105.567 27.7184 107.389 26.6743 110.243 26.6743C113.097 26.6743 114.918 27.7184 114.918 28.4359C114.918 29.1534 113.097 30.1974 110.243 30.1974Z" fill="#5410D4"/>
<path d="M111.8 36.2692V39.3462M111.8 42.4231V39.3462M111.8 39.3462H114.733H108.867" stroke="white" stroke-width="1.9" stroke-linecap="round" stroke-linejoin="round"/>
</g>
<g clip-path="url(#clip1_423_1452)">
<g clip-path="url(#clip2_423_1452)">
<path d="M187.654 83.488C188.347 82.9091 188.788 82.0391 188.788 81.0675C188.788 79.3287 187.374 77.914 185.635 77.914C183.896 77.914 182.482 79.3287 182.482 81.0675C182.482 82.039 182.923 82.9091 183.616 83.488C181.938 84.2562 180.77 85.9512 180.77 87.9141C180.77 88.2377 181.032 88.5 181.356 88.5H189.914C190.238 88.5 190.5 88.2377 190.5 87.9141C190.5 85.9511 189.331 84.2562 187.654 83.488ZM185.635 79.0859C186.728 79.0859 187.617 79.9749 187.617 81.0675C187.617 82.1601 186.728 83.0491 185.635 83.0491C184.542 83.049 183.653 82.1601 183.653 81.0675C183.653 79.9749 184.542 79.0859 185.635 79.0859ZM181.988 87.3281C182.27 85.5692 183.798 84.2209 185.635 84.2209C187.472 84.2209 189 85.5692 189.282 87.3281H181.988Z" fill="#5410D4"/>
<path d="M177.384 74.0739C178.077 73.495 178.519 72.625 178.519 71.6534C178.519 69.9146 177.104 68.5 175.365 68.5C173.626 68.5 172.212 69.9146 172.212 71.6534C172.212 72.625 172.654 73.495 173.347 74.0739C171.669 74.8421 170.5 76.5371 170.5 78.5C170.5 78.8236 170.762 79.0859 171.086 79.0859H179.644C179.968 79.0859 180.23 78.8236 180.23 78.5C180.23 76.5371 179.062 74.8422 177.384 74.0739ZM175.365 69.6719C176.458 69.6719 177.347 70.5608 177.347 71.6534C177.347 72.7461 176.458 73.635 175.365 73.635C174.273 73.635 173.384 72.7461 173.384 71.6534C173.384 70.5608 174.273 69.6719 175.365 69.6719ZM171.718 77.9141C172 76.1551 173.528 74.8068 175.365 74.8068C177.202 74.8068 178.73 76.1551 179.012 77.9141H171.718Z" fill="#5410D4"/>
<path d="M190.328 71.4959L187.504 68.6716C187.275 68.4428 186.904 68.4428 186.676 68.6716C186.447 68.9004 186.447 69.2714 186.676 69.5003L188.499 71.3243H182.433C182.109 71.3243 181.847 71.5866 181.847 71.9102C181.847 72.2338 182.109 72.4961 182.433 72.4961H188.5L186.676 74.3201C186.447 74.5489 186.447 74.9199 186.676 75.1487C186.79 75.2631 186.94 75.3204 187.09 75.3204C187.24 75.3204 187.39 75.2631 187.504 75.1487L190.328 72.3245C190.557 72.0957 190.557 71.7247 190.328 71.4959Z" fill="#0CD0CD"/>
<path d="M178.567 84.5039H172.501L174.325 82.6799C174.553 82.4511 174.553 82.0801 174.325 81.8513C174.096 81.6225 173.725 81.6225 173.496 81.8513L170.672 84.6755C170.443 84.9043 170.443 85.2753 170.672 85.5041L173.496 88.3284C173.61 88.4428 173.76 88.5 173.91 88.5C174.06 88.5 174.21 88.4428 174.325 88.3284C174.553 88.0996 174.553 87.7286 174.325 87.4997L172.501 85.6757H178.567C178.891 85.6757 179.153 85.4134 179.153 85.0898C179.153 84.7662 178.891 84.5039 178.567 84.5039Z" fill="#0CD0CD"/>
</g>
</g>
<g clip-path="url(#clip3_423_1452)">
<path d="M41.2808 85.5259V79.1582H39.7192V85.4956L37.6165 83.3929L36.5123 84.4971L40.5152 88.5L44.518 84.4971L43.4138 83.3929L41.2808 85.5259Z" fill="#0CD0CD"/>
<path d="M43.4671 75.3712H33.1603V76.9328H43.4671V75.3712Z" fill="#0CD0CD"/>
<path d="M48.152 68.5H32.848C31.5564 68.5 30.5056 69.5508 30.5056 70.8425V80.8369C30.5056 82.1286 31.5564 83.1794 32.848 83.1794H34.9562V81.6177H32.848C32.4175 81.6177 32.0672 81.2675 32.0672 80.8369V74.2H48.9328V80.8369C48.9328 81.2675 48.5825 81.6177 48.152 81.6177H46.0828V83.1794H48.152C49.4436 83.1794 50.4945 82.1286 50.4945 80.8369V70.8425C50.4945 69.5508 49.4436 68.5 48.152 68.5ZM48.9328 71.8575H32.0672V70.8425C32.0672 70.4119 32.4175 70.0616 32.848 70.0616H48.152C48.5826 70.0616 48.9329 70.4119 48.9329 70.8425V71.8575H48.9328Z" fill="#5410D4"/>
</g>
<defs>
<filter id="filter0_d_423_1452" x="0.519257" y="0.5" width="219.961" height="120" filterUnits="userSpaceOnUse" color-interpolation-filters="sRGB">
<feFlood flood-opacity="0" result="BackgroundImageFix"/>
<feColorMatrix in="SourceAlpha" type="matrix" values="0 0 0 0 0 0 0 0 0 0 0 0 0 0 0 0 0 0 127 0" result="hardAlpha"/>
<feOffset/>
<feGaussianBlur stdDeviation="5"/>
<feComposite in2="hardAlpha" operator="out"/>
<feColorMatrix type="matrix" values="0 0 0 0 0 0 0 0 0 0 0 0 0 0 0 0 0 0 0.14 0"/>
<feBlend mode="normal" in2="BackgroundImageFix" result="effect1_dropShadow_423_1452"/>
<feBlend mode="normal" in="SourceGraphic" in2="effect1_dropShadow_423_1452" result="shape"/>
</filter>
<clipPath id="clip0_423_1452">
<rect width="20" height="20" fill="white" transform="translate(98.5 25.5)"/>
</clipPath>
<clipPath id="clip1_423_1452">
<rect width="20" height="20" fill="white" transform="translate(170.5 68.5)"/>
</clipPath>
<clipPath id="clip2_423_1452">
<rect width="20" height="20" fill="white" transform="translate(170.5 68.5)"/>
</clipPath>
<clipPath id="clip3_423_1452">
<rect width="20" height="20" fill="white" transform="translate(30.5 68.5)"/>
</clipPath>
</defs>
</svg>
