<svg width="25" height="25" viewBox="0 0 25 25" fill="none" xmlns="http://www.w3.org/2000/svg">
<g clip-path="url(#clip0_401_555)">
<path d="M23.8999 10.9388C23.8992 10.9383 23.8986 10.9376 23.8981 10.937L14.108 1.14728C13.6907 0.729797 13.1359 0.5 12.5457 0.5C11.9556 0.5 11.4008 0.729797 10.9833 1.14728L1.19833 10.9321C1.19503 10.9354 1.19155 10.9388 1.18844 10.9421C0.331507 11.804 0.332971 13.2024 1.19265 14.0621C1.58541 14.455 2.10397 14.6824 2.65859 14.7064C2.6813 14.7086 2.704 14.7097 2.72689 14.7097H3.11691V21.9142C3.11691 23.34 4.27706 24.5 5.7029 24.5H9.5331C9.92147 24.5 10.2362 24.1851 10.2362 23.7969V18.1484C10.2362 17.4979 10.7656 16.9687 11.4162 16.9687H13.6753C14.3259 16.9687 14.8551 17.4979 14.8551 18.1484V23.7969C14.8551 24.1851 15.1698 24.5 15.5582 24.5H19.3884C20.8144 24.5 21.9744 23.34 21.9744 21.9142V14.7097H22.3362C22.9262 14.7097 23.481 14.4799 23.8986 14.0623C24.7592 13.2013 24.7596 11.8004 23.8999 10.9388ZM22.9042 13.068C22.7524 13.2198 22.5506 13.3035 22.3362 13.3035H21.2713C20.8829 13.3035 20.5681 13.6182 20.5681 14.0066V21.9142C20.5681 22.5646 20.039 23.0938 19.3884 23.0938H16.2613V18.1484C16.2613 16.7226 15.1013 15.5624 13.6753 15.5624H11.4162C9.99013 15.5624 8.82998 16.7226 8.82998 18.1484V23.0938H5.7029C5.05251 23.0938 4.52316 22.5646 4.52316 21.9142V14.0066C4.52316 13.6182 4.2084 13.3035 3.82003 13.3035H2.7734C2.76241 13.3027 2.75161 13.3022 2.74044 13.302C2.53097 13.2983 2.3345 13.2152 2.18728 13.0678C1.87417 12.7547 1.87417 12.2451 2.18728 11.9318C2.18746 11.9318 2.18746 11.9316 2.18765 11.9315L2.1882 11.9309L11.9779 2.14154C12.1295 1.98975 12.3311 1.90625 12.5457 1.90625C12.7602 1.90625 12.9618 1.98975 13.1135 2.14154L22.9011 11.9289C22.9025 11.9304 22.9042 11.9318 22.9057 11.9333C23.2171 12.247 23.2166 12.7554 22.9042 13.068Z" fill="#798291"/>
</g>
<defs>
<clipPath id="clip0_401_555">
<rect width="24" height="24" fill="white" transform="translate(0.5 0.5)"/>
</clipPath>
</defs>
</svg>
