<svg width="16" height="16" viewBox="0 0 16 16" fill="none" xmlns="http://www.w3.org/2000/svg">
<path d="M15.4049 6.77427L14.9833 6.24477C14.7791 5.98634 14.6779 5.66151 14.6989 5.33285V4.64646C14.7146 4.20501 14.5808 3.77118 14.3192 3.41525C14.0576 3.05932 13.6835 2.80213 13.2575 2.68536L12.6005 2.50886C12.2778 2.4226 11.9984 2.22003 11.8161 1.94013L11.4435 1.37141C11.1983 0.999004 10.8335 0.721277 10.4092 0.584023C9.98498 0.446769 9.52664 0.458183 9.10975 0.616384L8.4822 0.861523C8.16684 0.984112 7.817 0.984112 7.50164 0.861523L6.86428 0.616384C6.4474 0.458183 5.98906 0.446769 5.56482 0.584023C5.14058 0.721277 4.77578 0.999004 4.53056 1.37141L4.15795 1.94013C3.97563 2.22003 3.69623 2.4226 3.37351 2.50886L2.71654 2.68536C2.29052 2.80213 1.91641 3.05932 1.6548 3.41525C1.39319 3.77118 1.25941 4.20501 1.27512 4.64646V5.33285C1.29438 5.66289 1.18944 5.98819 0.980956 6.24477L0.549511 6.77427C0.271027 7.1221 0.119293 7.55439 0.119293 7.99996C0.119293 8.44554 0.271027 8.87783 0.549511 9.22566L0.980956 9.75516C1.00327 9.78771 1.03233 9.81507 1.06618 9.83538C1.10002 9.85568 1.13784 9.86846 1.17707 9.87282C1.21736 9.87755 1.2582 9.87389 1.29701 9.86208C1.33582 9.85027 1.37177 9.83056 1.40259 9.80418C1.46415 9.75419 1.50373 9.68211 1.51289 9.60334C1.52205 9.52457 1.50007 9.44533 1.45162 9.38254L1.02018 8.85304C0.830117 8.61117 0.726802 8.31248 0.726802 8.00487C0.726802 7.69726 0.830117 7.39856 1.02018 7.15668L1.45162 6.62718C1.77725 6.26355 1.95556 5.79155 1.9517 5.30344V4.61705C1.93781 4.31264 2.02706 4.01245 2.20502 3.76509C2.38298 3.51773 2.63922 3.33767 2.93226 3.25408L3.58923 3.07758C4.04982 2.94853 4.44737 2.6556 4.70706 2.25391L5.07968 1.68519C5.25064 1.42814 5.5038 1.23674 5.79773 1.14233C6.09165 1.04792 6.40891 1.05609 6.69759 1.16549L7.33495 1.40083C7.78222 1.57777 8.28007 1.57777 8.72734 1.40083L9.35489 1.16549C9.64357 1.05609 9.96084 1.04792 10.2548 1.14233C10.5487 1.23674 10.8018 1.42814 10.9728 1.68519L11.3454 2.25391C11.6051 2.6556 12.0027 2.94853 12.4633 3.07758L13.1202 3.25408C13.4142 3.3361 13.6714 3.51576 13.8497 3.7635C14.0279 4.01123 14.1165 4.31227 14.1008 4.61705V5.30344C14.0778 5.7826 14.2313 6.25355 14.5322 6.62718L14.9637 7.15668C15.1537 7.39856 15.257 7.69726 15.257 8.00487C15.257 8.31248 15.1537 8.61117 14.9637 8.85304L14.5322 9.38254C14.2313 9.75617 14.0778 10.2271 14.1008 10.7063V11.3829C14.1152 11.6886 14.0263 11.9902 13.8484 12.2392C13.6705 12.4882 13.414 12.6701 13.1202 12.7557L12.4633 12.9322C12.0042 13.0587 11.6069 13.348 11.3454 13.746L10.9728 14.3147C10.802 14.5722 10.5494 14.7645 10.2558 14.8606C9.96224 14.9566 9.64482 14.9509 9.35489 14.8442L8.72734 14.5991C8.27478 14.4325 7.7777 14.4325 7.32514 14.5991L6.69759 14.8442C6.40767 14.9509 6.09024 14.9566 5.79665 14.8606C5.50305 14.7645 5.25044 14.5722 5.07968 14.3147L4.70706 13.746C4.44562 13.348 4.04829 13.0587 3.58923 12.9322L2.93226 12.7557C2.63934 12.6686 2.38384 12.4863 2.20623 12.2377C2.02862 11.989 1.93904 11.6882 1.9517 11.3829C1.95376 11.3435 1.94787 11.3041 1.93439 11.267C1.92092 11.23 1.90013 11.196 1.87326 11.1672C1.84797 11.137 1.81649 11.1126 1.78096 11.0957C1.74544 11.0788 1.70669 11.0697 1.66734 11.0691C1.58621 11.0628 1.50569 11.0873 1.44182 11.1377C1.38591 11.1966 1.35138 11.2726 1.34376 11.3535C1.32804 11.7949 1.46183 12.2287 1.72344 12.5847C1.98505 12.9406 2.35916 13.1978 2.78518 13.3146L3.44215 13.4911C3.76328 13.5806 4.04163 13.7824 4.22659 14.0598L4.5992 14.6285C4.84442 15.0009 5.20922 15.2786 5.63346 15.4159C6.0577 15.5532 6.51604 15.5417 6.93292 15.3835L7.57028 15.1482C7.88564 15.0256 8.23548 15.0256 8.55084 15.1482L9.17839 15.3835C9.40044 15.4692 9.63659 15.5124 9.87459 15.511C10.1993 15.511 10.5188 15.4303 10.8046 15.2763C11.0905 15.1222 11.3335 14.8997 11.5121 14.6285L11.8847 14.0598C12.0697 13.7824 12.348 13.5806 12.6692 13.4911L13.3261 13.3146C13.7522 13.1978 14.1263 12.9406 14.3879 12.5847C14.6495 12.2287 14.7833 11.7949 14.7676 11.3535V10.6769C14.7533 10.3429 14.8614 10.0151 15.0715 9.75516L15.4932 9.22566C15.7594 8.86789 15.8957 8.4301 15.8796 7.98446C15.8636 7.53883 15.6961 7.11197 15.4049 6.77427Z" fill="#5410D4"/>
<path d="M8.02146 2.47962C7.07358 2.4784 6.14135 2.72128 5.31455 3.18485C4.48776 3.64841 3.79425 4.31706 3.30082 5.12639C2.80739 5.93572 2.53066 6.85846 2.49729 7.80576C2.46391 8.75306 2.67502 9.69299 3.11026 10.535C3.54551 11.3771 4.19024 12.0929 4.98236 12.6135C5.77449 13.1341 6.68731 13.442 7.63293 13.5075C8.57855 13.573 9.52511 13.3939 10.3814 12.9874C11.2378 12.581 11.975 11.9609 12.5222 11.1869C12.5588 11.1218 12.5702 11.0454 12.554 10.9725C12.5379 10.8995 12.4955 10.835 12.4348 10.7913C12.3742 10.7477 12.2996 10.7279 12.2252 10.7357C12.1509 10.7436 12.0821 10.7786 12.0319 10.8339C11.3561 11.7879 10.3617 12.469 9.22803 12.7543C8.09433 13.0397 6.89598 12.9105 5.84911 12.3902C4.80223 11.8698 3.97575 10.9926 3.51872 9.91653C3.06168 8.84051 3.00419 7.6366 3.35659 6.52192C3.709 5.40724 4.44811 4.45517 5.44063 3.83743C6.43315 3.21969 7.61374 2.97693 8.76947 3.15295C9.9252 3.32896 10.98 3.91216 11.7436 4.79736C12.5073 5.68255 12.9294 6.81148 12.934 7.98053C12.934 8.06115 12.9661 8.13847 13.0231 8.19547C13.0801 8.25248 13.1574 8.2845 13.238 8.2845C13.3186 8.2845 13.3959 8.25248 13.453 8.19547C13.51 8.13847 13.542 8.06115 13.542 7.98053C13.5342 6.5206 12.9495 5.12296 11.9153 4.09245C10.8811 3.06195 9.48141 2.48219 8.02146 2.47962Z" fill="#5410D4"/>
<path d="M12.6203 9.85326V9.78462C12.6322 9.75285 12.6504 9.72378 12.6737 9.69911C12.697 9.67444 12.725 9.65468 12.7561 9.64098C12.7871 9.62728 12.8206 9.61992 12.8545 9.61933C12.8885 9.61874 12.9222 9.62493 12.9537 9.63754C13.0162 9.66371 13.0663 9.71288 13.0937 9.7749C13.1211 9.83693 13.1236 9.90709 13.1008 9.97093V10.0494C13.0747 10.1131 13.0245 10.1639 12.9611 10.1905C12.8976 10.2172 12.8262 10.2176 12.7625 10.1916C12.6988 10.1655 12.648 10.1153 12.6213 10.0519C12.5946 9.98841 12.5943 9.91697 12.6203 9.85326Z" fill="#5410D4"/>
<path d="M5.94256 6.70588C6.01018 6.70588 6.07503 6.73274 6.12284 6.78055C6.17065 6.82836 6.19751 6.8932 6.19751 6.96082V9.0396C6.19894 9.09395 6.18294 9.14734 6.15188 9.19196C6.12081 9.23659 6.07628 9.27011 6.02481 9.28763C5.97334 9.30516 5.91761 9.30576 5.86577 9.28936C5.81392 9.27297 5.76868 9.24042 5.73665 9.19649L4.64823 7.73546V9.0396C4.63647 9.09988 4.60411 9.15419 4.55671 9.19323C4.5093 9.23228 4.4498 9.25363 4.38838 9.25363C4.32697 9.25363 4.26747 9.23228 4.22006 9.19323C4.17266 9.15419 4.1403 9.09988 4.12854 9.0396V7.00004C4.12711 6.94569 4.1431 6.8923 4.17417 6.84768C4.20524 6.80305 4.24976 6.76953 4.30123 6.752C4.35271 6.73448 4.40844 6.73388 4.46028 6.75028C4.51212 6.76667 4.55736 6.79922 4.5894 6.84315L5.67781 8.29437V7.00004C5.67366 6.96289 5.67742 6.92527 5.68885 6.88967C5.70028 6.85408 5.71912 6.8213 5.74414 6.79351C5.76915 6.76572 5.79976 6.74354 5.83396 6.72844C5.86816 6.71333 5.90518 6.70565 5.94256 6.70588Z" fill="#0CD0CD"/>
<path d="M8.81564 6.99985C8.81564 7.03462 8.80879 7.06905 8.79549 7.10117C8.78218 7.13329 8.76268 7.16247 8.7381 7.18706C8.71351 7.21164 8.68433 7.23114 8.65221 7.24445C8.62009 7.25775 8.58566 7.2646 8.55089 7.2646H7.23695V7.77449H8.01159C8.04635 7.77449 8.08078 7.78134 8.1129 7.79464C8.14502 7.80795 8.17421 7.82745 8.19879 7.85203C8.22338 7.87662 8.24288 7.90581 8.25618 7.93793C8.26949 7.97005 8.27634 8.00447 8.27634 8.03924C8.27636 8.07356 8.26946 8.10753 8.25604 8.13912C8.24262 8.17071 8.22295 8.19926 8.19823 8.22307C8.17351 8.24688 8.14423 8.26545 8.11216 8.27767C8.08009 8.28989 8.04588 8.29551 8.01159 8.29419H7.23695V8.81388H8.53128C8.56962 8.80639 8.60915 8.80749 8.64702 8.81709C8.68489 8.82668 8.72017 8.84454 8.75032 8.86938C8.78047 8.89421 8.80476 8.92542 8.82143 8.96075C8.8381 8.99608 8.84674 9.03466 8.84674 9.07373C8.84674 9.11279 8.8381 9.15138 8.82143 9.18671C8.80476 9.22204 8.78047 9.25324 8.75032 9.27808C8.72017 9.30291 8.68489 9.32077 8.64702 9.33037C8.60915 9.33996 8.56962 9.34106 8.53128 9.33357H6.982C6.91346 9.33362 6.84756 9.30708 6.79818 9.25953C6.7488 9.21198 6.71979 9.14713 6.71725 9.07863V6.99985C6.71979 6.93135 6.7488 6.8665 6.79818 6.81895C6.84756 6.77141 6.91346 6.74486 6.982 6.74491H8.53128C8.56685 6.74225 8.60259 6.7468 8.63636 6.75829C8.67013 6.76978 8.70122 6.78798 8.72778 6.81179C8.75434 6.83561 8.77581 6.86454 8.79091 6.89685C8.80601 6.92917 8.81442 6.9642 8.81564 6.99985Z" fill="#0CD0CD"/>
<path d="M11.6395 9.06868C11.6334 9.11979 11.612 9.16785 11.5781 9.20656C11.5441 9.24527 11.4993 9.2728 11.4494 9.28553C11.3995 9.29826 11.347 9.2956 11.2986 9.2779C11.2503 9.2602 11.2085 9.22828 11.1786 9.18634L10.6099 8.38229L10.0412 9.18634C10.0127 9.23207 9.97037 9.26759 9.92039 9.28778C9.87042 9.30798 9.81533 9.31182 9.76304 9.29874C9.71075 9.28567 9.66395 9.25636 9.62936 9.21502C9.59477 9.17369 9.57417 9.12245 9.57052 9.06868L9.31557 6.99971C9.31148 6.96619 9.31408 6.93219 9.32323 6.89969C9.33239 6.86719 9.34791 6.83683 9.36889 6.81038C9.38987 6.78392 9.4159 6.7619 9.44546 6.74558C9.47502 6.72927 9.50753 6.71899 9.5411 6.71534C9.57483 6.7098 9.60934 6.71137 9.64242 6.71995C9.6755 6.72853 9.70642 6.74394 9.7332 6.76517C9.75997 6.78641 9.78201 6.81301 9.7979 6.84327C9.81379 6.87353 9.82318 6.90677 9.82546 6.94087L10.002 8.35287L10.3942 7.79396C10.4176 7.75958 10.449 7.73144 10.4857 7.71199C10.5225 7.69254 10.5634 7.68237 10.605 7.68237C10.6466 7.68237 10.6875 7.69254 10.7243 7.71199C10.761 7.73144 10.7924 7.75958 10.8158 7.79396L11.208 8.35287L11.3845 6.94087C11.3881 6.90635 11.3987 6.87293 11.4156 6.84263C11.4325 6.81234 11.4555 6.78583 11.483 6.76472C11.5106 6.7436 11.5421 6.72833 11.5758 6.71984C11.6094 6.71136 11.6444 6.70982 11.6787 6.71534C11.7454 6.7251 11.806 6.75995 11.8479 6.8128C11.8898 6.86565 11.9099 6.9325 11.9042 6.99971L11.6395 9.06868Z" fill="#0CD0CD"/>
<path d="M10.2179 10.7257C10.2179 10.7934 10.191 10.8582 10.1432 10.906C10.0954 10.9538 10.0306 10.9807 9.96294 10.9807H6.04072C5.98045 10.9689 5.92614 10.9366 5.88709 10.8892C5.84804 10.8418 5.82669 10.7823 5.82669 10.7208C5.82669 10.6594 5.84804 10.5999 5.88709 10.5525C5.92614 10.5051 5.98045 10.4728 6.04072 10.461H9.96294C10.0314 10.4635 10.0963 10.4925 10.1438 10.5419C10.1914 10.5913 10.2179 10.6572 10.2179 10.7257Z" fill="#0CD0CD"/>
</svg>
