<svg width="16" height="16" viewBox="0 0 16 16" fill="none" xmlns="http://www.w3.org/2000/svg">
<g clip-path="url(#clip0_401_1155)">
<g clip-path="url(#clip1_401_1155)">
<path d="M3.1416 6.29346C3.1416 8.87818 5.24439 10.981 7.8291 10.981C10.4138 10.981 12.5166 8.87818 12.5166 6.29346C12.5166 3.70874 10.4138 1.60596 7.8291 1.60596C5.24439 1.60596 3.1416 3.70874 3.1416 6.29346ZM7.8291 2.23096C10.0692 2.23096 11.8916 4.05335 11.8916 6.29346C11.8916 8.53357 10.0692 10.356 7.8291 10.356C5.58899 10.356 3.7666 8.53357 3.7666 6.29346C3.7666 4.05335 5.58899 2.23096 7.8291 2.23096Z" fill="white"/>
<path d="M4.93505 5.73634L6.14636 6.92983L5.86767 8.60721C5.84826 8.72403 5.89648 8.8417 5.99231 8.91129C6.08801 8.98087 6.21484 8.99026 6.31994 8.93582L7.82911 8.15213L9.33815 8.93582C9.44239 8.9899 9.56923 8.98148 9.66578 8.91129C9.76161 8.8417 9.80983 8.72403 9.79042 8.60721L9.51173 6.92983L10.723 5.73634C10.8074 5.65333 10.8375 5.5298 10.8009 5.41713C10.7643 5.30458 10.6673 5.22242 10.5502 5.20472L8.86915 4.95167L8.10853 3.43054C8.05567 3.32471 7.94739 3.25781 7.82911 3.25781C7.7107 3.25781 7.60254 3.32471 7.54956 3.43054L6.78894 4.95167L5.1079 5.20472C4.99084 5.2223 4.89379 5.30458 4.85717 5.41713C4.82055 5.5298 4.85082 5.65333 4.93505 5.73634ZM7.04248 5.54554C7.14307 5.53041 7.22998 5.4673 7.27552 5.37635L7.82911 4.26905L8.3827 5.37635C8.42823 5.4673 8.51514 5.53041 8.61573 5.54554L9.83925 5.72975L8.95753 6.59828C8.88514 6.6697 8.85194 6.77187 8.86854 6.87221L9.07142 8.09304L7.97303 7.52273C7.92798 7.49929 7.87855 7.48757 7.82911 7.48757C7.77967 7.48757 7.73023 7.49929 7.68506 7.52273L6.58667 8.09304L6.78955 6.87221C6.80628 6.77187 6.77307 6.6697 6.70056 6.59828L5.81897 5.72975L7.04248 5.54554Z" fill="#0CD0CD"/>
<path d="M8.14159 0.668458C8.14159 0.841065 8.0017 0.980958 7.82909 0.980958C7.65649 0.980958 7.5166 0.841065 7.5166 0.668458C7.5166 0.49585 7.65649 0.355957 7.82909 0.355957C8.0017 0.355957 8.14159 0.49585 8.14159 0.668458Z" fill="#0CD0CD"/>
<path d="M6.35633 0.540165C3.72754 1.21119 1.8916 3.57704 1.8916 6.29347C1.8916 7.98061 2.60095 9.57033 3.84619 10.6962L1.9635 14.0142C1.90295 14.121 1.91052 14.2533 1.98279 14.3524C2.05505 14.4517 2.17859 14.4994 2.29883 14.4744L4.43689 14.0304L5.18836 16.148C5.22913 16.2632 5.3335 16.3439 5.45533 16.3548C5.57715 16.3656 5.69397 16.3042 5.7544 16.1979L7.82911 12.5504L9.90369 16.1979C9.9596 16.2962 10.0636 16.3559 10.1752 16.3559C10.1843 16.3559 10.1936 16.3555 10.2028 16.3548C10.3246 16.3439 10.429 16.2631 10.4699 16.148L11.2212 14.0304L13.3593 14.4744C13.4794 14.4993 13.603 14.4516 13.6753 14.3524C13.7477 14.2533 13.7551 14.121 13.6946 14.0142L11.8119 10.6962C13.0571 9.57033 13.7665 7.98061 13.7665 6.29347C13.7665 3.57704 11.9306 1.21119 9.30189 0.540165C9.13453 0.49744 8.96448 0.598392 8.92176 0.765629C8.87903 0.932866 8.97999 1.10303 9.14722 1.14576C11.499 1.7461 13.1416 3.86292 13.1416 6.29347C13.1416 9.25161 10.7391 11.606 7.82911 11.606C4.91699 11.606 2.5166 9.24965 2.5166 6.29347C2.5166 3.86292 4.15906 1.7461 6.51087 1.14576C6.6781 1.10303 6.77906 0.932866 6.73645 0.765629C6.69373 0.598392 6.52369 0.49744 6.35633 0.540165ZM5.54895 15.2952L4.93482 13.5646C4.88257 13.4174 4.72974 13.3313 4.57678 13.3631L2.8479 13.7221L4.33789 11.0961C5.20667 11.7277 6.23536 12.1125 7.30506 12.2077L5.54895 15.2952ZM11.0813 13.3631C10.9285 13.3313 10.7755 13.4174 10.7233 13.5646L10.1093 15.2952L8.35303 12.2077C9.42286 12.1125 10.4514 11.7277 11.3203 11.0961L12.8103 13.7221L11.0813 13.3631Z" fill="white"/>
</g>
</g>
<defs>
<clipPath id="clip0_401_1155">
<rect width="16" height="16" fill="white"/>
</clipPath>
<clipPath id="clip1_401_1155">
<rect width="16" height="16" fill="white" transform="translate(-0.202148 0.355957)"/>
</clipPath>
</defs>
</svg>
