<svg width="91" height="18" viewBox="0 0 91 18" fill="none" xmlns="http://www.w3.org/2000/svg">
<path d="M22.924 13V4.54H24.076L28.624 10.444V4.54H30.052V13H28.912L24.352 7.072V13H22.924ZM34.6486 13.12C33.9846 13.12 33.4126 12.996 32.9326 12.748C32.4526 12.5 32.0806 12.148 31.8166 11.692C31.5606 11.236 31.4326 10.696 31.4326 10.072C31.4326 9.464 31.5566 8.932 31.8046 8.476C32.0606 8.02 32.4086 7.664 32.8486 7.408C33.2966 7.144 33.8046 7.012 34.3726 7.012C35.2046 7.012 35.8606 7.276 36.3406 7.804C36.8286 8.332 37.0726 9.052 37.0726 9.964V10.408H32.8726C32.9846 11.456 33.5846 11.98 34.6726 11.98C35.0006 11.98 35.3286 11.932 35.6566 11.836C35.9846 11.732 36.2846 11.572 36.5566 11.356L36.9766 12.364C36.6966 12.596 36.3446 12.78 35.9206 12.916C35.4966 13.052 35.0726 13.12 34.6486 13.12ZM34.4326 8.032C33.9926 8.032 33.6366 8.168 33.3646 8.44C33.0926 8.712 32.9286 9.08 32.8726 9.544H35.8246C35.7926 9.056 35.6566 8.684 35.4166 8.428C35.1846 8.164 34.8566 8.032 34.4326 8.032ZM40.925 13.12C39.373 13.12 38.597 12.352 38.597 10.816V8.26H37.469V7.132H38.597V5.38H40.097V7.132H41.873V8.26H40.097V10.732C40.097 11.116 40.181 11.404 40.349 11.596C40.517 11.788 40.789 11.884 41.165 11.884C41.277 11.884 41.393 11.872 41.513 11.848C41.633 11.816 41.757 11.784 41.885 11.752L42.113 12.856C41.969 12.936 41.785 13 41.561 13.048C41.345 13.096 41.133 13.12 40.925 13.12ZM46.2209 13V4.54H49.9169C50.8049 4.54 51.4929 4.736 51.9809 5.128C52.4689 5.512 52.7129 6.048 52.7129 6.736C52.7129 7.192 52.5969 7.584 52.3649 7.912C52.1329 8.24 51.8129 8.48 51.4049 8.632C51.8849 8.768 52.2569 9.008 52.5209 9.352C52.7929 9.688 52.9289 10.116 52.9289 10.636C52.9289 11.388 52.6729 11.972 52.1609 12.388C51.6569 12.796 50.9529 13 50.0489 13H46.2209ZM47.6969 8.128H49.6529C50.7009 8.128 51.2249 7.724 51.2249 6.916C51.2249 6.108 50.7009 5.704 49.6529 5.704H47.6969V8.128ZM47.6969 11.836H49.8569C50.9129 11.836 51.4409 11.412 51.4409 10.564C51.4409 9.716 50.9129 9.292 49.8569 9.292H47.6969V11.836ZM56.2706 13.12C55.8466 13.12 55.4666 13.04 55.1306 12.88C54.8026 12.712 54.5426 12.488 54.3506 12.208C54.1666 11.928 54.0746 11.612 54.0746 11.26C54.0746 10.828 54.1866 10.488 54.4106 10.24C54.6346 9.984 54.9986 9.8 55.5026 9.688C56.0066 9.576 56.6826 9.52 57.5306 9.52H57.9506V9.268C57.9506 8.868 57.8626 8.58 57.6866 8.404C57.5106 8.228 57.2146 8.14 56.7986 8.14C56.4706 8.14 56.1346 8.192 55.7906 8.296C55.4466 8.392 55.0986 8.544 54.7466 8.752L54.3146 7.732C54.5226 7.588 54.7666 7.464 55.0466 7.36C55.3346 7.248 55.6346 7.164 55.9466 7.108C56.2666 7.044 56.5666 7.012 56.8466 7.012C57.7026 7.012 58.3386 7.212 58.7546 7.612C59.1706 8.004 59.3786 8.616 59.3786 9.448V13H57.9746V12.064C57.8386 12.392 57.6226 12.652 57.3266 12.844C57.0306 13.028 56.6786 13.12 56.2706 13.12ZM56.5826 12.088C56.9746 12.088 57.2986 11.952 57.5546 11.68C57.8186 11.408 57.9506 11.064 57.9506 10.648V10.384H57.5426C56.7906 10.384 56.2666 10.444 55.9706 10.564C55.6826 10.676 55.5386 10.884 55.5386 11.188C55.5386 11.452 55.6306 11.668 55.8146 11.836C55.9986 12.004 56.2546 12.088 56.5826 12.088ZM60.9011 13V7.132H62.3651V8.044C62.5651 7.708 62.8331 7.452 63.1691 7.276C63.5131 7.1 63.8971 7.012 64.3211 7.012C65.7051 7.012 66.3971 7.816 66.3971 9.424V13H64.8971V9.496C64.8971 9.04 64.8091 8.708 64.6331 8.5C64.4651 8.292 64.2011 8.188 63.8411 8.188C63.4011 8.188 63.0491 8.328 62.7851 8.608C62.5291 8.88 62.4011 9.244 62.4011 9.7V13H60.9011ZM67.9206 13V4.54H69.4206V9.628H69.4446L71.8086 7.132H73.6206L70.9566 9.94L73.7886 13H71.9526L69.4446 10.384H69.4206V13H67.9206ZM74.2582 5.872V4.408H75.9382V5.872H74.2582ZM74.3542 13V7.132H75.8542V13H74.3542ZM77.4128 13V7.132H78.8768V8.044C79.0768 7.708 79.3448 7.452 79.6808 7.276C80.0248 7.1 80.4088 7.012 80.8328 7.012C82.2168 7.012 82.9088 7.816 82.9088 9.424V13H81.4088V9.496C81.4088 9.04 81.3208 8.708 81.1448 8.5C80.9768 8.292 80.7128 8.188 80.3528 8.188C79.9128 8.188 79.5608 8.328 79.2968 8.608C79.0408 8.88 78.9128 9.244 78.9128 9.7V13H77.4128ZM87.1683 15.28C86.6243 15.28 86.1123 15.216 85.6323 15.088C85.1603 14.968 84.7443 14.78 84.3843 14.524L84.8163 13.48C85.1523 13.704 85.5123 13.868 85.8963 13.972C86.2803 14.084 86.6643 14.14 87.0483 14.14C88.1203 14.14 88.6563 13.624 88.6563 12.592V11.788C88.4883 12.116 88.2283 12.376 87.8763 12.568C87.5323 12.76 87.1483 12.856 86.7243 12.856C86.1963 12.856 85.7363 12.736 85.3443 12.496C84.9523 12.248 84.6483 11.904 84.4323 11.464C84.2163 11.024 84.1083 10.512 84.1083 9.928C84.1083 9.344 84.2163 8.836 84.4323 8.404C84.6483 7.964 84.9523 7.624 85.3443 7.384C85.7363 7.136 86.1963 7.012 86.7243 7.012C87.1643 7.012 87.5563 7.112 87.9003 7.312C88.2443 7.504 88.4963 7.764 88.6563 8.092V7.132H90.1203V12.412C90.1203 13.364 89.8683 14.08 89.3643 14.56C88.8603 15.04 88.1283 15.28 87.1683 15.28ZM87.1323 11.716C87.5963 11.716 87.9643 11.556 88.2363 11.236C88.5083 10.916 88.6443 10.48 88.6443 9.928C88.6443 9.376 88.5083 8.944 88.2363 8.632C87.9643 8.312 87.5963 8.152 87.1323 8.152C86.6683 8.152 86.3003 8.312 86.0283 8.632C85.7563 8.944 85.6203 9.376 85.6203 9.928C85.6203 10.48 85.7563 10.916 86.0283 11.236C86.3003 11.556 86.6683 11.716 87.1323 11.716Z" fill="#1A212C"/>
<g clip-path="url(#clip0_10_1510)">
<path d="M14.9038 12.3749C14.9571 12.3749 15.0003 12.33 15.0003 12.2745V11.9397C15.0003 11.8842 14.9571 11.8392 14.9038 11.8392H12.5253C12.472 11.8392 12.4288 11.8842 12.4288 11.9397V12.3142C12.4288 12.3697 12.472 12.4147 12.5253 12.4147H13.2105C13.43 12.4147 13.5984 12.498 13.7005 12.6428H12.5253C12.472 12.6428 12.4288 12.6878 12.4288 12.7433V13.0781C12.4288 13.1335 12.472 13.1785 12.5253 13.1785H13.801C13.751 13.4806 13.5361 13.6693 13.2003 13.6693H12.5253C12.472 13.6693 12.4288 13.7143 12.4288 13.7697V14.2135C12.4288 14.2415 12.4401 14.2683 12.4599 14.2873L13.7862 15.5626C13.804 15.5797 13.8273 15.5892 13.8516 15.5892H14.515C14.6028 15.5892 14.6449 15.477 14.5804 15.415L13.368 14.2492C13.9827 14.2296 14.4218 13.8022 14.4795 13.1785H14.9038C14.9571 13.1785 15.0003 13.1335 15.0003 13.0781V12.7433C15.0003 12.6878 14.9571 12.6428 14.9038 12.6428H14.4322C14.4042 12.5462 14.3657 12.4566 14.3177 12.3749H14.9038Z" fill="#0CD0CD"/>
</g>
<path d="M13.5585 9.245C11.1907 9.245 9.2644 11.1713 9.2644 13.5391C9.2644 15.907 11.1907 17.8335 13.5585 17.8335C15.9264 17.8335 17.8529 15.907 17.8529 13.5391C17.8529 11.1713 15.9267 9.245 13.5585 9.245ZM13.5585 16.5744C11.8851 16.5744 10.5236 15.2128 10.5236 13.5391C10.5236 11.8657 11.8851 10.5042 13.5585 10.5042C15.2322 10.5042 16.5938 11.8657 16.5938 13.5391C16.5938 15.2128 15.2322 16.5744 13.5585 16.5744Z" fill="#0CD0CD"/>
<path d="M8.34238 14.937C8.27488 14.685 8.23213 14.4308 8.20147 14.1763C8.096 14.2348 7.99278 14.2679 7.89491 14.2679C7.29275 14.2679 6.5061 13.1353 6.06003 11.202C6.65038 11.1334 7.268 11.0971 7.89491 11.0971C8.17813 11.0971 8.45881 11.1067 8.73669 11.1213C8.78422 11.0265 8.82894 10.9309 8.88238 10.8384C9.10738 10.4486 9.38019 10.0981 9.68563 9.78228C9.10513 9.72238 8.50747 9.68525 7.89519 9.68525C7.18391 9.68525 6.48669 9.72744 5.82013 9.80788C5.75066 9.22288 5.71128 8.59006 5.71128 7.91422C5.71128 7.23838 5.75066 6.60528 5.82013 6.02056C6.48641 6.101 7.18391 6.14319 7.89519 6.14319C8.60647 6.14319 9.30369 6.101 9.97025 6.02056C10.0397 6.60556 10.0791 7.23838 10.0791 7.91422C10.0791 8.16763 10.0735 8.41513 10.0631 8.65616C10.056 8.81675 10.0468 8.97481 10.0352 9.12978C10.0265 9.24988 10.013 9.3635 10.0015 9.48022C10.438 9.09716 10.9349 8.78778 11.478 8.56222C11.4856 8.34763 11.491 8.13191 11.491 7.91422C11.491 7.18466 11.4471 6.46972 11.363 5.78685C12.1913 5.606 12.9405 5.36019 13.57 5.05925C14.0039 5.91819 14.2486 6.88822 14.2486 7.9145C14.2486 8.00366 14.2444 8.09169 14.2408 8.18C14.711 8.23935 15.1714 8.36563 15.6147 8.549C15.6318 8.33947 15.6428 8.12825 15.6428 7.9145C15.6428 3.64231 12.1671 0.166626 7.89491 0.166626C3.62272 0.166626 0.147034 3.64231 0.147034 7.9145C0.147034 12.1867 3.62272 15.6624 7.89491 15.6624C8.1275 15.6624 8.35756 15.6503 8.5851 15.63C8.49116 15.4053 8.4065 15.1761 8.34238 14.937ZM12.7875 3.86563C12.3088 4.07684 11.7452 4.25488 11.1245 4.39353C10.9844 3.76409 10.8058 3.17853 10.5915 2.65513C10.5015 2.43519 10.4056 2.22903 10.3049 2.03609C11.2761 2.43547 12.1272 3.06884 12.7875 3.86563ZM7.89491 1.56078C8.30891 1.56078 8.8101 2.09628 9.22803 3.059C9.41788 3.49663 9.59056 4.02256 9.73006 4.62669C9.13972 4.69531 8.5221 4.7316 7.89519 4.7316C7.26828 4.7316 6.65066 4.69531 6.06031 4.62669C6.50581 2.69338 7.29247 1.56078 7.89491 1.56078ZM2.21985 10.7695C1.78616 9.91053 1.54119 8.9405 1.54119 7.91422C1.54119 6.88794 1.78616 5.91791 2.21985 5.05897C2.84928 5.36019 3.59881 5.60572 4.42681 5.78685C4.34272 6.46972 4.29885 7.18466 4.29885 7.91422C4.29885 8.64378 4.34272 9.35872 4.42681 10.0416C3.59881 10.2227 2.84956 10.4683 2.21985 10.7695ZM3.002 11.9631C3.48069 11.7519 4.04431 11.5738 4.66531 11.4352C4.80538 12.0646 4.98397 12.6502 5.19828 13.1736C5.28828 13.3938 5.38419 13.5997 5.48488 13.7926C4.51344 13.393 3.66238 12.7599 3.002 11.9631ZM5.198 2.65484C4.98369 3.17825 4.80538 3.76381 4.66503 4.39325C4.04403 4.2546 3.48041 4.07656 3.00172 3.86535C3.6621 3.06856 4.51316 2.43547 5.48431 2.03581C5.38391 2.22875 5.288 2.43491 5.198 2.65484Z" fill="#5410D4"/>
<defs>
<clipPath id="clip0_10_1510">
<rect width="2.57143" height="4.28572" fill="white" transform="translate(12.4288 11.5715)"/>
</clipPath>
</defs>
</svg>
