<svg width="24" height="24" viewBox="0 0 24 24" fill="none" xmlns="http://www.w3.org/2000/svg">
<g clip-path="url(#clip0_408_1480)">
<path d="M16.2352 1.41075C15.251 1.41075 14.4215 2.08575 14.1851 2.9971L6.23836 5.646H2.11762C0.949969 5.64605 0 6.59602 0 7.76368V11.9989C0 13.1666 0.949969 14.1166 2.11762 14.1166H2.14547L2.86955 20.8871C2.96906 21.8138 4.10794 22.8627 5.4548 22.524C6.56803 22.2459 7.25494 21.1279 7.00927 20.0136L6.85556 18.3496C6.87033 18.3505 6.885 18.3518 6.89995 18.3518H7.76461C8.93227 18.3518 9.88223 17.4018 9.88223 16.2342V15.3312L14.185 16.7655C14.4214 17.6769 15.2509 18.3518 16.2352 18.3518C17.4028 18.3518 18.3528 17.4018 18.3528 16.2342V3.52842C18.3528 2.36072 17.4029 1.41075 16.2352 1.41075ZM5.11158 21.1546C4.75078 21.2454 4.37911 21.0385 4.26722 20.6799L3.56531 14.1166H5.04694C5.64712 20.6157 5.60672 20.2204 5.62598 20.2978C5.72034 20.6759 5.49009 21.0601 5.11158 21.1546ZM5.64703 12.7048C5.02102 12.7048 2.56758 12.7048 2.11762 12.7048C1.72842 12.7048 1.41173 12.3882 1.41173 11.9989V7.76368C1.41173 7.37447 1.72838 7.05778 2.11762 7.05778H5.64703V12.7048ZM8.47055 16.2342C8.47055 16.6234 8.15391 16.9401 7.76466 16.9401H6.9C6.84037 16.9401 6.78277 16.9483 6.7275 16.9622L6.47189 14.1945L8.47055 14.8606V16.2342ZM14.1176 15.2549L7.05881 12.9019V6.86068L14.1176 4.50774V15.2549ZM16.9411 16.2342C16.9411 16.6234 16.6245 16.9401 16.2352 16.9401C15.846 16.9401 15.5293 16.6235 15.5293 16.2342V3.52842C15.5293 3.13922 15.846 2.82253 16.2352 2.82253C16.6244 2.82253 16.9411 3.13917 16.9411 3.52842V16.2342Z" fill="#798291"/>
<path d="M23.2939 8.4696H20.4704C20.0806 8.4696 19.7645 8.78563 19.7645 9.17548C19.7645 9.56529 20.0806 9.88137 20.4704 9.88137H23.2939C23.6837 9.88137 23.9998 9.56534 23.9998 9.17548C23.9998 8.78563 23.6838 8.4696 23.2939 8.4696Z" fill="#798291"/>
<path d="M23.9253 4.62454C23.751 4.27584 23.3269 4.13451 22.9783 4.30888L20.1548 5.72062C19.8061 5.895 19.6647 6.31898 19.8391 6.66769C20.0136 7.01658 20.4376 7.15767 20.7862 6.98334L23.6097 5.5716C23.9584 5.39723 24.0997 4.97324 23.9253 4.62454Z" fill="#798291"/>
<path d="M23.6096 12.7794L20.7861 11.3676C20.4375 11.1933 20.0134 11.3346 19.8391 11.6833C19.6647 12.032 19.8061 12.4559 20.1547 12.6304L22.9782 14.0421C23.327 14.2165 23.751 14.075 23.9253 13.7264C24.0996 13.3777 23.9583 12.9537 23.6096 12.7794Z" fill="#798291"/>
<path d="M14.1851 2.9971L14.2009 3.04453L14.2267 3.03594L14.2335 3.00965L14.1851 2.9971ZM6.23836 5.646V5.696H6.24647L6.25417 5.69344L6.23836 5.646ZM2.11762 5.646L2.11762 5.596L2.11762 5.596L2.11762 5.646ZM2.14547 14.1166L2.19519 14.1112L2.19041 14.0666H2.14547V14.1166ZM2.86955 20.8871L2.81983 20.8924L2.81983 20.8924L2.86955 20.8871ZM5.4548 22.524L5.44268 22.4755L5.4426 22.4755L5.4548 22.524ZM7.00927 20.0136L6.95909 20.0182L6.96044 20.0243L7.00927 20.0136ZM6.85556 18.3496L6.85873 18.2997L6.8004 18.296L6.80577 18.3542L6.85556 18.3496ZM9.88223 15.3312L9.89805 15.2837L9.83223 15.2618V15.3312H9.88223ZM14.185 16.7655L14.2334 16.7529L14.2266 16.7266L14.2008 16.718L14.185 16.7655ZM18.3528 3.52842L18.3028 3.52842V3.52842H18.3528ZM5.11158 21.1546L5.09946 21.1061L5.09939 21.1062L5.11158 21.1546ZM4.26722 20.6799L4.21653 20.6853L4.21949 20.6948L4.26722 20.6799ZM3.56531 14.1166V14.0666H3.50968L3.5156 14.1219L3.56531 14.1166ZM5.04694 14.1166L5.09673 14.112L5.09253 14.0666H5.04694V14.1166ZM5.62598 20.2978L5.57746 20.3099L5.57747 20.3099L5.62598 20.2978ZM5.64703 12.7048V12.7548H5.69703V12.7048H5.64703ZM5.64703 7.05778H5.69703V7.00778H5.64703V7.05778ZM6.7275 16.9622L6.67771 16.9668L6.68308 17.025L6.73971 17.0107L6.7275 16.9622ZM6.47189 14.1945L6.4877 14.147L6.41506 14.1228L6.4221 14.1991L6.47189 14.1945ZM8.47055 14.8606H8.52055V14.8246L8.48636 14.8132L8.47055 14.8606ZM14.1176 15.2549L14.1018 15.3023L14.1676 15.3242V15.2549H14.1176ZM7.05881 12.9019H7.00881V12.938L7.043 12.9494L7.05881 12.9019ZM7.05881 6.86068L7.043 6.81324L7.00881 6.82464V6.86068H7.05881ZM14.1176 4.50774H14.1676V4.43837L14.1018 4.4603L14.1176 4.50774ZM22.9783 4.30888L23.0006 4.3536L23.0006 4.3536L22.9783 4.30888ZM20.1548 5.72062L20.1324 5.6759L20.1324 5.6759L20.1548 5.72062ZM19.8391 6.66769L19.8838 6.64532L19.8838 6.64532L19.8391 6.66769ZM20.7862 6.98334L20.7638 6.93862L20.7638 6.93862L20.7862 6.98334ZM23.6097 5.5716L23.632 5.61633L23.6321 5.61632L23.6097 5.5716ZM23.6096 12.7794L23.632 12.7347L23.632 12.7346L23.6096 12.7794ZM20.7861 11.3676L20.7638 11.4124L20.7638 11.4124L20.7861 11.3676ZM19.8391 11.6833L19.7943 11.6609L19.7943 11.6609L19.8391 11.6833ZM20.1547 12.6304L20.1323 12.6751L20.1324 12.6751L20.1547 12.6304ZM22.9782 14.0421L23.0006 13.9974L23.0006 13.9974L22.9782 14.0421ZM23.9253 13.7264L23.97 13.7488L23.97 13.7488L23.9253 13.7264ZM16.2352 1.36075C15.2276 1.36075 14.3786 2.05174 14.1367 2.98454L14.2335 3.00965C14.4643 2.11976 15.2744 1.46075 16.2352 1.46075V1.36075ZM14.1693 2.94966L6.22255 5.59857L6.25417 5.69344L14.2009 3.04453L14.1693 2.94966ZM6.23836 5.596H2.11762V5.696H6.23836V5.596ZM2.11762 5.596C0.922355 5.59605 -0.05 6.5684 -0.05 7.76368H0.05C0.05 6.62363 0.977583 5.69605 2.11763 5.696L2.11762 5.596ZM-0.05 7.76368V11.9989H0.05V7.76368H-0.05ZM-0.05 11.9989C-0.05 13.1942 0.922355 14.1666 2.11762 14.1666V14.0666C0.977583 14.0666 0.05 13.139 0.05 11.9989H-0.05ZM2.11762 14.1666H2.14547V14.0666H2.11762V14.1666ZM2.09575 14.1219L2.81983 20.8924L2.91926 20.8818L2.19519 14.1112L2.09575 14.1219ZM2.81983 20.8924C2.8714 21.3726 3.19057 21.8784 3.66517 22.2206C4.14104 22.5638 4.77743 22.7459 5.46699 22.5725L5.4426 22.4755C4.7853 22.6408 4.17883 22.4678 3.72366 22.1395C3.26724 21.8104 2.96721 21.3283 2.91926 20.8817L2.81983 20.8924ZM5.46691 22.5725C6.60652 22.2878 7.30957 21.1435 7.05809 20.0028L6.96044 20.0243C7.2003 21.1123 6.52954 22.204 5.44268 22.4755L5.46691 22.5725ZM7.05905 20.009L6.90535 18.345L6.80577 18.3542L6.95948 20.0182L7.05905 20.009ZM6.85239 18.3995C6.86547 18.4003 6.8829 18.4018 6.89995 18.4018V18.3018C6.8871 18.3018 6.87519 18.3007 6.85873 18.2997L6.85239 18.3995ZM6.89995 18.4018H7.76461V18.3018H6.89995V18.4018ZM7.76461 18.4018C8.95988 18.4018 9.93223 17.4295 9.93223 16.2342H9.83223C9.83223 17.3742 8.90465 18.3018 7.76461 18.3018V18.4018ZM9.93223 16.2342V15.3312H9.83223V16.2342H9.93223ZM9.86642 15.3786L14.1692 16.8129L14.2008 16.718L9.89805 15.2837L9.86642 15.3786ZM14.1366 16.778C14.3785 17.7109 15.2275 18.4018 16.2352 18.4018V18.3018C15.2743 18.3018 14.4642 17.6428 14.2334 16.7529L14.1366 16.778ZM16.2352 18.4018C17.4304 18.4018 18.4028 17.4295 18.4028 16.2342H18.3028C18.3028 17.3742 17.3752 18.3018 16.2352 18.3018V18.4018ZM18.4028 16.2342V3.52842H18.3028V16.2342H18.4028ZM18.4028 3.52843C18.4028 2.33311 17.4305 1.36075 16.2352 1.36075V1.46075C17.3752 1.46075 18.3028 2.38833 18.3028 3.52842L18.4028 3.52843ZM5.09939 21.1062C4.7643 21.1904 4.41894 20.9983 4.31495 20.665L4.21949 20.6948C4.33928 21.0787 4.73726 21.3003 5.12377 21.2031L5.09939 21.1062ZM4.31694 20.6746L3.61503 14.1113L3.5156 14.1219L4.2175 20.6852L4.31694 20.6746ZM3.56531 14.1666H5.04694V14.0666H3.56531V14.1666ZM4.99715 14.1212C5.29724 17.3707 5.43719 18.8967 5.50452 19.62C5.53817 19.9814 5.55373 20.1429 5.56208 20.2187C5.5662 20.2562 5.56877 20.2747 5.57121 20.2866C5.5726 20.2934 5.57393 20.2979 5.57512 20.3018C5.57613 20.305 5.57666 20.3067 5.57746 20.3099L5.67451 20.2857C5.6729 20.2793 5.67149 20.2749 5.67068 20.2723C5.67006 20.2703 5.66969 20.269 5.66916 20.2665C5.66779 20.2598 5.66566 20.2457 5.66148 20.2078C5.65324 20.133 5.63777 19.9725 5.60409 19.6107C5.53676 18.8875 5.39682 17.3616 5.09673 14.112L4.99715 14.1212ZM5.57747 20.3099C5.66515 20.6612 5.45116 21.0183 5.09946 21.1061L5.12369 21.2032C5.52902 21.1019 5.77554 20.6905 5.6745 20.2857L5.57747 20.3099ZM5.64703 12.6548C5.64581 12.6548 5.64458 12.6548 5.64334 12.6548C5.64211 12.6548 5.64086 12.6548 5.63961 12.6548C5.63836 12.6548 5.6371 12.6548 5.63584 12.6548C5.63458 12.6548 5.6333 12.6548 5.63203 12.6548C5.63075 12.6548 5.62946 12.6548 5.62817 12.6548C5.62688 12.6548 5.62558 12.6548 5.62428 12.6548C5.62297 12.6548 5.62166 12.6548 5.62034 12.6548C5.61902 12.6548 5.6177 12.6548 5.61636 12.6548C5.61503 12.6548 5.61369 12.6548 5.61235 12.6548C5.611 12.6548 5.60965 12.6548 5.60829 12.6548C5.60693 12.6548 5.60556 12.6548 5.60419 12.6548C5.60282 12.6548 5.60144 12.6548 5.60005 12.6548C5.59867 12.6548 5.59727 12.6548 5.59587 12.6548C5.59448 12.6548 5.59307 12.6548 5.59166 12.6548C5.59025 12.6548 5.58883 12.6548 5.5874 12.6548C5.58598 12.6548 5.58454 12.6548 5.58311 12.6548C5.58167 12.6548 5.58022 12.6548 5.57877 12.6548C5.57732 12.6548 5.57586 12.6548 5.5744 12.6548C5.57293 12.6548 5.57146 12.6548 5.56998 12.6548C5.56851 12.6548 5.56702 12.6548 5.56553 12.6548C5.56404 12.6548 5.56255 12.6548 5.56104 12.6548C5.55954 12.6548 5.55803 12.6548 5.55652 12.6548C5.555 12.6548 5.55348 12.6548 5.55195 12.6548C5.55042 12.6548 5.54889 12.6548 5.54735 12.6548C5.54581 12.6548 5.54426 12.6548 5.54271 12.6548C5.54115 12.6548 5.53959 12.6548 5.53803 12.6548C5.53646 12.6548 5.53489 12.6548 5.53331 12.6548C5.53173 12.6548 5.53015 12.6548 5.52856 12.6548C5.52697 12.6548 5.52537 12.6548 5.52377 12.6548C5.52216 12.6548 5.52055 12.6548 5.51894 12.6548C5.51732 12.6548 5.5157 12.6548 5.51407 12.6548C5.51245 12.6548 5.51081 12.6548 5.50917 12.6548C5.50753 12.6548 5.50589 12.6548 5.50424 12.6548C5.50258 12.6548 5.50093 12.6548 5.49926 12.6548C5.4976 12.6548 5.49593 12.6548 5.49425 12.6548C5.49258 12.6548 5.4909 12.6548 5.48921 12.6548C5.48752 12.6548 5.48583 12.6548 5.48413 12.6548C5.48243 12.6548 5.48072 12.6548 5.47901 12.6548C5.4773 12.6548 5.47558 12.6548 5.47386 12.6548C5.47214 12.6548 5.47041 12.6548 5.46867 12.6548C5.46694 12.6548 5.4652 12.6548 5.46345 12.6548C5.46171 12.6548 5.45995 12.6548 5.4582 12.6548C5.45644 12.6548 5.45467 12.6548 5.45291 12.6548C5.45114 12.6548 5.44936 12.6548 5.44758 12.6548C5.4458 12.6548 5.44401 12.6548 5.44222 12.6548C5.44043 12.6548 5.43863 12.6548 5.43683 12.6548C5.43502 12.6548 5.43321 12.6548 5.4314 12.6548C5.42958 12.6548 5.42776 12.6548 5.42594 12.6548C5.42411 12.6548 5.42228 12.6548 5.42044 12.6548C5.4186 12.6548 5.41676 12.6548 5.41491 12.6548C5.41306 12.6548 5.41121 12.6548 5.40935 12.6548C5.40749 12.6548 5.40563 12.6548 5.40376 12.6548C5.40189 12.6548 5.40001 12.6548 5.39813 12.6548C5.39625 12.6548 5.39436 12.6548 5.39247 12.6548C5.39058 12.6548 5.38868 12.6548 5.38677 12.6548C5.38487 12.6548 5.38296 12.6548 5.38105 12.6548C5.37913 12.6548 5.37722 12.6548 5.37529 12.6548C5.37337 12.6548 5.37144 12.6548 5.3695 12.6548C5.36757 12.6548 5.36562 12.6548 5.36368 12.6548C5.36173 12.6548 5.35978 12.6548 5.35783 12.6548C5.35587 12.6548 5.35391 12.6548 5.35194 12.6548C5.34997 12.6548 5.348 12.6548 5.34602 12.6548C5.34405 12.6548 5.34206 12.6548 5.34008 12.6548C5.33809 12.6548 5.3361 12.6548 5.3341 12.6548C5.3321 12.6548 5.3301 12.6548 5.32809 12.6548C5.32608 12.6548 5.32407 12.6548 5.32205 12.6548C5.32003 12.6548 5.31801 12.6548 5.31598 12.6548C5.31395 12.6548 5.31191 12.6548 5.30988 12.6548C5.30784 12.6548 5.30579 12.6548 5.30374 12.6548C5.3017 12.6548 5.29964 12.6548 5.29758 12.6548C5.29552 12.6548 5.29346 12.6548 5.29139 12.6548C5.28932 12.6548 5.28725 12.6548 5.28517 12.6548C5.28309 12.6548 5.28101 12.6548 5.27892 12.6548C5.27683 12.6548 5.27474 12.6548 5.27264 12.6548C5.27054 12.6548 5.26844 12.6548 5.26633 12.6548C5.26422 12.6548 5.26211 12.6548 5.25999 12.6548C5.25788 12.6548 5.25575 12.6548 5.25363 12.6548C5.2515 12.6548 5.24937 12.6548 5.24723 12.6548C5.2451 12.6548 5.24295 12.6548 5.24081 12.6548C5.23866 12.6548 5.23651 12.6548 5.23436 12.6548C5.2322 12.6548 5.23004 12.6548 5.22788 12.6548C5.22571 12.6548 5.22354 12.6548 5.22137 12.6548C5.21919 12.6548 5.21701 12.6548 5.21483 12.6548C5.21265 12.6548 5.21046 12.6548 5.20827 12.6548C5.20608 12.6548 5.20388 12.6548 5.20168 12.6548C5.19948 12.6548 5.19727 12.6548 5.19506 12.6548C5.19285 12.6548 5.19063 12.6548 5.18841 12.6548C5.18619 12.6548 5.18397 12.6548 5.18174 12.6548C5.17951 12.6548 5.17728 12.6548 5.17504 12.6548C5.1728 12.6548 5.17056 12.6548 5.16832 12.6548C5.16607 12.6548 5.16382 12.6548 5.16156 12.6548C5.15931 12.6548 5.15705 12.6548 5.15479 12.6548C5.15252 12.6548 5.15025 12.6548 5.14798 12.6548C5.14571 12.6548 5.14343 12.6548 5.14115 12.6548C5.13887 12.6548 5.13659 12.6548 5.1343 12.6548C5.13201 12.6548 5.12971 12.6548 5.12741 12.6548C5.12512 12.6548 5.12281 12.6548 5.12051 12.6548C5.1182 12.6548 5.11589 12.6548 5.11358 12.6548C5.11126 12.6548 5.10894 12.6548 5.10662 12.6548C5.10429 12.6548 5.10197 12.6548 5.09964 12.6548C5.0973 12.6548 5.09497 12.6548 5.09263 12.6548C5.09029 12.6548 5.08795 12.6548 5.0856 12.6548C5.08325 12.6548 5.0809 12.6548 5.07854 12.6548C5.07619 12.6548 5.07383 12.6548 5.07146 12.6548C5.0691 12.6548 5.06673 12.6548 5.06436 12.6548C5.06199 12.6548 5.05961 12.6548 5.05723 12.6548C5.05485 12.6548 5.05247 12.6548 5.05008 12.6548C5.04769 12.6548 5.0453 12.6548 5.0429 12.6548C5.04051 12.6548 5.03811 12.6548 5.03571 12.6548C5.0333 12.6548 5.0309 12.6548 5.02849 12.6548C5.02607 12.6548 5.02366 12.6548 5.02124 12.6548C5.01882 12.6548 5.0164 12.6548 5.01397 12.6548C5.01155 12.6548 5.00912 12.6548 5.00668 12.6548C5.00425 12.6548 5.00181 12.6548 4.99937 12.6548C4.99693 12.6548 4.99449 12.6548 4.99204 12.6548C4.98959 12.6548 4.98714 12.6548 4.98468 12.6548C4.98222 12.6548 4.97976 12.6548 4.9773 12.6548C4.97484 12.6548 4.97237 12.6548 4.9699 12.6548C4.96743 12.6548 4.96496 12.6548 4.96248 12.6548C4.96 12.6548 4.95752 12.6548 4.95504 12.6548C4.95255 12.6548 4.95006 12.6548 4.94757 12.6548C4.94508 12.6548 4.94258 12.6548 4.94008 12.6548C4.93759 12.6548 4.93508 12.6548 4.93258 12.6548C4.93007 12.6548 4.92756 12.6548 4.92505 12.6548C4.92254 12.6548 4.92002 12.6548 4.9175 12.6548C4.91498 12.6548 4.91246 12.6548 4.90993 12.6548C4.90741 12.6548 4.90488 12.6548 4.90234 12.6548C4.89981 12.6548 4.89728 12.6548 4.89474 12.6548C4.8922 12.6548 4.88965 12.6548 4.88711 12.6548C4.88456 12.6548 4.88201 12.6548 4.87946 12.6548C4.87691 12.6548 4.87435 12.6548 4.87179 12.6548C4.86923 12.6548 4.86667 12.6548 4.8641 12.6548C4.86154 12.6548 4.85897 12.6548 4.8564 12.6548C4.85382 12.6548 4.85125 12.6548 4.84867 12.6548C4.84609 12.6548 4.84351 12.6548 4.84093 12.6548C4.83834 12.6548 4.83575 12.6548 4.83316 12.6548C4.83057 12.6548 4.82798 12.6548 4.82538 12.6548C4.82278 12.6548 4.82018 12.6548 4.81758 12.6548C4.81498 12.6548 4.81237 12.6548 4.80976 12.6548C4.80715 12.6548 4.80454 12.6548 4.80193 12.6548C4.79931 12.6548 4.79669 12.6548 4.79407 12.6548C4.79145 12.6548 4.78883 12.6548 4.7862 12.6548C4.78357 12.6548 4.78094 12.6548 4.77831 12.6548C4.77568 12.6548 4.77304 12.6548 4.7704 12.6548C4.76776 12.6548 4.76512 12.6548 4.76248 12.6548C4.75983 12.6548 4.75719 12.6548 4.75454 12.6548C4.75189 12.6548 4.74923 12.6548 4.74658 12.6548C4.74392 12.6548 4.74127 12.6548 4.7386 12.6548C4.73594 12.6548 4.73328 12.6548 4.73061 12.6548C4.72795 12.6548 4.72528 12.6548 4.72261 12.6548C4.71993 12.6548 4.71726 12.6548 4.71458 12.6548C4.71191 12.6548 4.70923 12.6548 4.70654 12.6548C4.70386 12.6548 4.70118 12.6548 4.69849 12.6548C4.6958 12.6548 4.69311 12.6548 4.69042 12.6548C4.68772 12.6548 4.68503 12.6548 4.68233 12.6548C4.67963 12.6548 4.67693 12.6548 4.67423 12.6548C4.67153 12.6548 4.66882 12.6548 4.66611 12.6548C4.66341 12.6548 4.66069 12.6548 4.65798 12.6548C4.65527 12.6548 4.65255 12.6548 4.64984 12.6548C4.64712 12.6548 4.6444 12.6548 4.64167 12.6548C4.63895 12.6548 4.63623 12.6548 4.6335 12.6548C4.63077 12.6548 4.62804 12.6548 4.62531 12.6548C4.62258 12.6548 4.61984 12.6548 4.61711 12.6548C4.61437 12.6548 4.61163 12.6548 4.60889 12.6548C4.60615 12.6548 4.6034 12.6548 4.60066 12.6548C4.59791 12.6548 4.59516 12.6548 4.59241 12.6548C4.58966 12.6548 4.58691 12.6548 4.58415 12.6548C4.5814 12.6548 4.57864 12.6548 4.57588 12.6548C4.57312 12.6548 4.57036 12.6548 4.5676 12.6548C4.56483 12.6548 4.56207 12.6548 4.5593 12.6548C4.55653 12.6548 4.55376 12.6548 4.55099 12.6548C4.54822 12.6548 4.54544 12.6548 4.54267 12.6548C4.53989 12.6548 4.53711 12.6548 4.53433 12.6548C4.53155 12.6548 4.52877 12.6548 4.52598 12.6548C4.5232 12.6548 4.52041 12.6548 4.51762 12.6548C4.51484 12.6548 4.51205 12.6548 4.50925 12.6548C4.50646 12.6548 4.50367 12.6548 4.50087 12.6548C4.49807 12.6548 4.49528 12.6548 4.49248 12.6548C4.48968 12.6548 4.48687 12.6548 4.48407 12.6548C4.48127 12.6548 4.47846 12.6548 4.47565 12.6548C4.47285 12.6548 4.47004 12.6548 4.46723 12.6548C4.46441 12.6548 4.4616 12.6548 4.45879 12.6548C4.45597 12.6548 4.45316 12.6548 4.45034 12.6548C4.44752 12.6548 4.4447 12.6548 4.44188 12.6548C4.43906 12.6548 4.43623 12.6548 4.43341 12.6548C4.43058 12.6548 4.42775 12.6548 4.42493 12.6548C4.4221 12.6548 4.41927 12.6548 4.41644 12.6548C4.4136 12.6548 4.41077 12.6548 4.40794 12.6548C4.4051 12.6548 4.40226 12.6548 4.39943 12.6548C4.39659 12.6548 4.39375 12.6548 4.39091 12.6548C4.38807 12.6548 4.38522 12.6548 4.38238 12.6548C4.37953 12.6548 4.37669 12.6548 4.37384 12.6548C4.37099 12.6548 4.36814 12.6548 4.36529 12.6548C4.36244 12.6548 4.35959 12.6548 4.35674 12.6548C4.35389 12.6548 4.35103 12.6548 4.34817 12.6548C4.34532 12.6548 4.34246 12.6548 4.3396 12.6548C4.33674 12.6548 4.33388 12.6548 4.33102 12.6548C4.32816 12.6548 4.3253 12.6548 4.32243 12.6548C4.31957 12.6548 4.3167 12.6548 4.31384 12.6548C4.31097 12.6548 4.3081 12.6548 4.30523 12.6548C4.30236 12.6548 4.29949 12.6548 4.29662 12.6548C4.29375 12.6548 4.29087 12.6548 4.288 12.6548C4.28513 12.6548 4.28225 12.6548 4.27937 12.6548C4.2765 12.6548 4.27362 12.6548 4.27074 12.6548C4.26786 12.6548 4.26498 12.6548 4.2621 12.6548C4.25922 12.6548 4.25634 12.6548 4.25345 12.6548C4.25057 12.6548 4.24768 12.6548 4.2448 12.6548C4.24191 12.6548 4.23903 12.6548 4.23614 12.6548C4.23325 12.6548 4.23036 12.6548 4.22747 12.6548C4.22458 12.6548 4.22169 12.6548 4.2188 12.6548C4.21591 12.6548 4.21301 12.6548 4.21012 12.6548C4.20723 12.6548 4.20433 12.6548 4.20144 12.6548C4.19854 12.6548 4.19564 12.6548 4.19275 12.6548C4.18985 12.6548 4.18695 12.6548 4.18405 12.6548C4.18115 12.6548 4.17825 12.6548 4.17535 12.6548C4.17245 12.6548 4.16955 12.6548 4.16665 12.6548C4.16374 12.6548 4.16084 12.6548 4.15794 12.6548C4.15503 12.6548 4.15213 12.6548 4.14922 12.6548C4.14632 12.6548 4.14341 12.6548 4.1405 12.6548C4.1376 12.6548 4.13469 12.6548 4.13178 12.6548C4.12887 12.6548 4.12596 12.6548 4.12305 12.6548C4.12014 12.6548 4.11723 12.6548 4.11432 12.6548C4.11141 12.6548 4.1085 12.6548 4.10559 12.6548C4.10267 12.6548 4.09976 12.6548 4.09685 12.6548C4.09393 12.6548 4.09102 12.6548 4.0881 12.6548C4.08519 12.6548 4.08227 12.6548 4.07936 12.6548C4.07644 12.6548 4.07353 12.6548 4.07061 12.6548C4.06769 12.6548 4.06478 12.6548 4.06186 12.6548C4.05894 12.6548 4.05602 12.6548 4.0531 12.6548C4.05018 12.6548 4.04727 12.6548 4.04435 12.6548C4.04143 12.6548 4.03851 12.6548 4.03559 12.6548C4.03267 12.6548 4.02975 12.6548 4.02682 12.6548C4.0239 12.6548 4.02098 12.6548 4.01806 12.6548C4.01514 12.6548 4.01222 12.6548 4.00929 12.6548C4.00637 12.6548 4.00345 12.6548 4.00053 12.6548C3.9976 12.6548 3.99468 12.6548 3.99176 12.6548C3.98883 12.6548 3.98591 12.6548 3.98299 12.6548C3.98006 12.6548 3.97714 12.6548 3.97422 12.6548C3.97129 12.6548 3.96837 12.6548 3.96544 12.6548C3.96252 12.6548 3.95959 12.6548 3.95667 12.6548C3.95374 12.6548 3.95082 12.6548 3.94789 12.6548C3.94497 12.6548 3.94204 12.6548 3.93912 12.6548C3.93619 12.6548 3.93327 12.6548 3.93034 12.6548C3.92742 12.6548 3.92449 12.6548 3.92157 12.6548C3.91864 12.6548 3.91572 12.6548 3.91279 12.6548C3.90987 12.6548 3.90694 12.6548 3.90402 12.6548C3.90109 12.6548 3.89817 12.6548 3.89524 12.6548C3.89232 12.6548 3.88939 12.6548 3.88647 12.6548C3.88354 12.6548 3.88062 12.6548 3.87769 12.6548C3.87477 12.6548 3.87184 12.6548 3.86892 12.6548C3.86599 12.6548 3.86307 12.6548 3.86015 12.6548C3.85722 12.6548 3.8543 12.6548 3.85137 12.6548C3.84845 12.6548 3.84553 12.6548 3.8426 12.6548C3.83968 12.6548 3.83676 12.6548 3.83384 12.6548C3.83091 12.6548 3.82799 12.6548 3.82507 12.6548C3.82215 12.6548 3.81923 12.6548 3.8163 12.6548C3.81338 12.6548 3.81046 12.6548 3.80754 12.6548C3.80462 12.6548 3.8017 12.6548 3.79878 12.6548C3.79586 12.6548 3.79294 12.6548 3.79002 12.6548C3.7871 12.6548 3.78419 12.6548 3.78127 12.6548C3.77835 12.6548 3.77543 12.6548 3.77251 12.6548C3.7696 12.6548 3.76668 12.6548 3.76376 12.6548C3.76085 12.6548 3.75793 12.6548 3.75502 12.6548C3.7521 12.6548 3.74919 12.6548 3.74627 12.6548C3.74336 12.6548 3.74044 12.6548 3.73753 12.6548C3.73462 12.6548 3.73171 12.6548 3.72879 12.6548C3.72588 12.6548 3.72297 12.6548 3.72006 12.6548C3.71715 12.6548 3.71424 12.6548 3.71133 12.6548C3.70842 12.6548 3.70551 12.6548 3.70261 12.6548C3.6997 12.6548 3.69679 12.6548 3.69389 12.6548C3.69098 12.6548 3.68807 12.6548 3.68517 12.6548C3.68226 12.6548 3.67936 12.6548 3.67646 12.6548C3.67355 12.6548 3.67065 12.6548 3.66775 12.6548C3.66485 12.6548 3.66195 12.6548 3.65905 12.6548C3.65615 12.6548 3.65325 12.6548 3.65035 12.6548C3.64745 12.6548 3.64455 12.6548 3.64166 12.6548C3.63876 12.6548 3.63587 12.6548 3.63297 12.6548C3.63008 12.6548 3.62718 12.6548 3.62429 12.6548C3.6214 12.6548 3.61851 12.6548 3.61561 12.6548C3.61272 12.6548 3.60983 12.6548 3.60695 12.6548C3.60406 12.6548 3.60117 12.6548 3.59828 12.6548C3.5954 12.6548 3.59251 12.6548 3.58963 12.6548C3.58674 12.6548 3.58386 12.6548 3.58097 12.6548C3.57809 12.6548 3.57521 12.6548 3.57233 12.6548C3.56945 12.6548 3.56657 12.6548 3.56369 12.6548C3.56082 12.6548 3.55794 12.6548 3.55506 12.6548C3.55219 12.6548 3.54931 12.6548 3.54644 12.6548C3.54357 12.6548 3.5407 12.6548 3.53783 12.6548C3.53496 12.6548 3.53209 12.6548 3.52922 12.6548C3.52635 12.6548 3.52348 12.6548 3.52062 12.6548C3.51775 12.6548 3.51489 12.6548 3.51202 12.6548C3.50916 12.6548 3.5063 12.6548 3.50344 12.6548C3.50058 12.6548 3.49772 12.6548 3.49486 12.6548C3.49201 12.6548 3.48915 12.6548 3.4863 12.6548C3.48344 12.6548 3.48059 12.6548 3.47774 12.6548C3.47489 12.6548 3.47203 12.6548 3.46919 12.6548C3.46634 12.6548 3.46349 12.6548 3.46064 12.6548C3.4578 12.6548 3.45495 12.6548 3.45211 12.6548C3.44927 12.6548 3.44643 12.6548 3.44359 12.6548C3.44075 12.6548 3.43791 12.6548 3.43507 12.6548C3.43224 12.6548 3.4294 12.6548 3.42657 12.6548C3.42374 12.6548 3.4209 12.6548 3.41807 12.6548C3.41524 12.6548 3.41242 12.6548 3.40959 12.6548C3.40676 12.6548 3.40394 12.6548 3.40111 12.6548C3.39829 12.6548 3.39547 12.6548 3.39265 12.6548C3.38983 12.6548 3.38701 12.6548 3.38419 12.6548C3.38138 12.6548 3.37856 12.6548 3.37575 12.6548C3.37294 12.6548 3.37013 12.6548 3.36732 12.6548C3.36451 12.6548 3.3617 12.6548 3.3589 12.6548C3.35609 12.6548 3.35329 12.6548 3.35048 12.6548C3.34768 12.6548 3.34488 12.6548 3.34208 12.6548C3.33929 12.6548 3.33649 12.6548 3.3337 12.6548C3.3309 12.6548 3.32811 12.6548 3.32532 12.6548C3.32253 12.6548 3.31974 12.6548 3.31695 12.6548C3.31417 12.6548 3.31138 12.6548 3.3086 12.6548C3.30582 12.6548 3.30304 12.6548 3.30026 12.6548C3.29748 12.6548 3.29471 12.6548 3.29193 12.6548C3.28916 12.6548 3.28639 12.6548 3.28362 12.6548C3.28085 12.6548 3.27808 12.6548 3.27531 12.6548C3.27255 12.6548 3.26978 12.6548 3.26702 12.6548C3.26426 12.6548 3.2615 12.6548 3.25874 12.6548C3.25599 12.6548 3.25323 12.6548 3.25048 12.6548C3.24773 12.6548 3.24498 12.6548 3.24223 12.6548C3.23948 12.6548 3.23673 12.6548 3.23399 12.6548C3.23125 12.6548 3.22851 12.6548 3.22577 12.6548C3.22303 12.6548 3.22029 12.6548 3.21756 12.6548C3.21482 12.6548 3.21209 12.6548 3.20936 12.6548C3.20663 12.6548 3.2039 12.6548 3.20118 12.6548C3.19845 12.6548 3.19573 12.6548 3.19301 12.6548C3.19029 12.6548 3.18757 12.6548 3.18486 12.6548C3.18214 12.6548 3.17943 12.6548 3.17672 12.6548C3.17401 12.6548 3.1713 12.6548 3.16859 12.6548C3.16589 12.6548 3.16319 12.6548 3.16049 12.6548C3.15779 12.6548 3.15509 12.6548 3.15239 12.6548C3.1497 12.6548 3.147 12.6548 3.14431 12.6548C3.14162 12.6548 3.13894 12.6548 3.13625 12.6548C3.13357 12.6548 3.13088 12.6548 3.1282 12.6548C3.12553 12.6548 3.12285 12.6548 3.12017 12.6548C3.1175 12.6548 3.11483 12.6548 3.11216 12.6548C3.10949 12.6548 3.10682 12.6548 3.10416 12.6548C3.1015 12.6548 3.09884 12.6548 3.09618 12.6548C3.09352 12.6548 3.09086 12.6548 3.08821 12.6548C3.08556 12.6548 3.08291 12.6548 3.08026 12.6548C3.07762 12.6548 3.07497 12.6548 3.07233 12.6548C3.06969 12.6548 3.06705 12.6548 3.06442 12.6548C3.06178 12.6548 3.05915 12.6548 3.05652 12.6548C3.05389 12.6548 3.05126 12.6548 3.04864 12.6548C3.04601 12.6548 3.04339 12.6548 3.04078 12.6548C3.03816 12.6548 3.03554 12.6548 3.03293 12.6548C3.03032 12.6548 3.02771 12.6548 3.0251 12.6548C3.0225 12.6548 3.01989 12.6548 3.01729 12.6548C3.0147 12.6548 3.0121 12.6548 3.0095 12.6548C3.00691 12.6548 3.00432 12.6548 3.00173 12.6548C2.99914 12.6548 2.99656 12.6548 2.99398 12.6548C2.9914 12.6548 2.98882 12.6548 2.98624 12.6548C2.98367 12.6548 2.9811 12.6548 2.97853 12.6548C2.97596 12.6548 2.97339 12.6548 2.97083 12.6548C2.96827 12.6548 2.96571 12.6548 2.96315 12.6548C2.9606 12.6548 2.95805 12.6548 2.9555 12.6548C2.95295 12.6548 2.9504 12.6548 2.94786 12.6548C2.94532 12.6548 2.94278 12.6548 2.94024 12.6548C2.9377 12.6548 2.93517 12.6548 2.93264 12.6548C2.93011 12.6548 2.92759 12.6548 2.92506 12.6548C2.92254 12.6548 2.92002 12.6548 2.91751 12.6548C2.91499 12.6548 2.91248 12.6548 2.90997 12.6548C2.90746 12.6548 2.90495 12.6548 2.90245 12.6548C2.89995 12.6548 2.89745 12.6548 2.89496 12.6548C2.89246 12.6548 2.88997 12.6548 2.88748 12.6548C2.88499 12.6548 2.88251 12.6548 2.88003 12.6548C2.87755 12.6548 2.87507 12.6548 2.8726 12.6548C2.87012 12.6548 2.86765 12.6548 2.86519 12.6548C2.86272 12.6548 2.86026 12.6548 2.8578 12.6548C2.85534 12.6548 2.85288 12.6548 2.85043 12.6548C2.84798 12.6548 2.84553 12.6548 2.84308 12.6548C2.84064 12.6548 2.8382 12.6548 2.83576 12.6548C2.83332 12.6548 2.83089 12.6548 2.82846 12.6548C2.82603 12.6548 2.82361 12.6548 2.82118 12.6548C2.81876 12.6548 2.81634 12.6548 2.81393 12.6548C2.81151 12.6548 2.8091 12.6548 2.8067 12.6548C2.80429 12.6548 2.80189 12.6548 2.79949 12.6548C2.79709 12.6548 2.79469 12.6548 2.7923 12.6548C2.78991 12.6548 2.78752 12.6548 2.78514 12.6548C2.78276 12.6548 2.78038 12.6548 2.778 12.6548C2.77562 12.6548 2.77325 12.6548 2.77089 12.6548C2.76852 12.6548 2.76615 12.6548 2.76379 12.6548C2.76143 12.6548 2.75908 12.6548 2.75673 12.6548C2.75438 12.6548 2.75203 12.6548 2.74968 12.6548C2.74734 12.6548 2.745 12.6548 2.74267 12.6548C2.74033 12.6548 2.738 12.6548 2.73567 12.6548C2.73335 12.6548 2.73102 12.6548 2.7287 12.6548C2.72638 12.6548 2.72407 12.6548 2.72176 12.6548C2.71945 12.6548 2.71714 12.6548 2.71484 12.6548C2.71254 12.6548 2.71024 12.6548 2.70795 12.6548C2.70565 12.6548 2.70336 12.6548 2.70108 12.6548C2.69879 12.6548 2.69651 12.6548 2.69424 12.6548C2.69196 12.6548 2.68969 12.6548 2.68742 12.6548C2.68515 12.6548 2.68289 12.6548 2.68063 12.6548C2.67837 12.6548 2.67612 12.6548 2.67387 12.6548C2.67162 12.6548 2.66937 12.6548 2.66713 12.6548C2.66489 12.6548 2.66265 12.6548 2.66042 12.6548C2.65818 12.6548 2.65596 12.6548 2.65373 12.6548C2.65151 12.6548 2.64929 12.6548 2.64707 12.6548C2.64486 12.6548 2.64265 12.6548 2.64044 12.6548C2.63824 12.6548 2.63604 12.6548 2.63384 12.6548C2.63164 12.6548 2.62945 12.6548 2.62726 12.6548C2.62507 12.6548 2.62289 12.6548 2.62071 12.6548C2.61853 12.6548 2.61636 12.6548 2.61419 12.6548C2.61202 12.6548 2.60986 12.6548 2.6077 12.6548C2.60554 12.6548 2.60338 12.6548 2.60123 12.6548C2.59908 12.6548 2.59694 12.6548 2.5948 12.6548C2.59266 12.6548 2.59052 12.6548 2.58839 12.6548C2.58626 12.6548 2.58413 12.6548 2.58201 12.6548C2.57989 12.6548 2.57777 12.6548 2.57566 12.6548C2.57354 12.6548 2.57144 12.6548 2.56933 12.6548C2.56723 12.6548 2.56513 12.6548 2.56304 12.6548C2.56095 12.6548 2.55886 12.6548 2.55678 12.6548C2.55469 12.6548 2.55261 12.6548 2.55054 12.6548C2.54847 12.6548 2.5464 12.6548 2.54434 12.6548C2.54227 12.6548 2.54021 12.6548 2.53816 12.6548C2.53611 12.6548 2.53406 12.6548 2.53202 12.6548C2.52997 12.6548 2.52793 12.6548 2.5259 12.6548C2.52387 12.6548 2.52184 12.6548 2.51981 12.6548C2.51779 12.6548 2.51577 12.6548 2.51376 12.6548C2.51175 12.6548 2.50974 12.6548 2.50774 12.6548C2.50573 12.6548 2.50374 12.6548 2.50174 12.6548C2.49975 12.6548 2.49776 12.6548 2.49578 12.6548C2.4938 12.6548 2.49182 12.6548 2.48985 12.6548C2.48788 12.6548 2.48591 12.6548 2.48395 12.6548C2.48199 12.6548 2.48003 12.6548 2.47808 12.6548C2.47613 12.6548 2.47418 12.6548 2.47224 12.6548C2.4703 12.6548 2.46837 12.6548 2.46644 12.6548C2.46451 12.6548 2.46259 12.6548 2.46067 12.6548C2.45875 12.6548 2.45683 12.6548 2.45493 12.6548C2.45302 12.6548 2.45111 12.6548 2.44922 12.6548C2.44732 12.6548 2.44543 12.6548 2.44354 12.6548C2.44165 12.6548 2.43977 12.6548 2.4379 12.6548C2.43602 12.6548 2.43415 12.6548 2.43229 12.6548C2.43042 12.6548 2.42856 12.6548 2.42671 12.6548C2.42486 12.6548 2.42301 12.6548 2.42117 12.6548C2.41932 12.6548 2.41749 12.6548 2.41565 12.6548C2.41382 12.6548 2.412 12.6548 2.41018 12.6548C2.40836 12.6548 2.40654 12.6548 2.40473 12.6548C2.40292 12.6548 2.40112 12.6548 2.39932 12.6548C2.39753 12.6548 2.39573 12.6548 2.39395 12.6548C2.39216 12.6548 2.39038 12.6548 2.38861 12.6548C2.38683 12.6548 2.38506 12.6548 2.3833 12.6548C2.38154 12.6548 2.37978 12.6548 2.37803 12.6548C2.37627 12.6548 2.37453 12.6548 2.37279 12.6548C2.37105 12.6548 2.36931 12.6548 2.36759 12.6548C2.36586 12.6548 2.36413 12.6548 2.36242 12.6548C2.3607 12.6548 2.35899 12.6548 2.35728 12.6548C2.35558 12.6548 2.35388 12.6548 2.35219 12.6548C2.35049 12.6548 2.34881 12.6548 2.34713 12.6548C2.34544 12.6548 2.34377 12.6548 2.3421 12.6548C2.34043 12.6548 2.33877 12.6548 2.33711 12.6548C2.33545 12.6548 2.3338 12.6548 2.33216 12.6548C2.33051 12.6548 2.32887 12.6548 2.32724 12.6548C2.3256 12.6548 2.32398 12.6548 2.32236 12.6548C2.32074 12.6548 2.31912 12.6548 2.31751 12.6548C2.3159 12.6548 2.3143 12.6548 2.3127 12.6548C2.31111 12.6548 2.30952 12.6548 2.30793 12.6548C2.30635 12.6548 2.30477 12.6548 2.3032 12.6548C2.30163 12.6548 2.30006 12.6548 2.2985 12.6548C2.29694 12.6548 2.29539 12.6548 2.29384 12.6548C2.2923 12.6548 2.29076 12.6548 2.28922 12.6548C2.28769 12.6548 2.28616 12.6548 2.28464 12.6548C2.28312 12.6548 2.2816 12.6548 2.28009 12.6548C2.27858 12.6548 2.27708 12.6548 2.27559 12.6548C2.27409 12.6548 2.2726 12.6548 2.27112 12.6548C2.26963 12.6548 2.26816 12.6548 2.26669 12.6548C2.26522 12.6548 2.26375 12.6548 2.26229 12.6548C2.26084 12.6548 2.25939 12.6548 2.25794 12.6548C2.2565 12.6548 2.25506 12.6548 2.25363 12.6548C2.2522 12.6548 2.25077 12.6548 2.24935 12.6548C2.24793 12.6548 2.24652 12.6548 2.24512 12.6548C2.24371 12.6548 2.24231 12.6548 2.24092 12.6548C2.23953 12.6548 2.23814 12.6548 2.23676 12.6548C2.23538 12.6548 2.23401 12.6548 2.23265 12.6548C2.23128 12.6548 2.22992 12.6548 2.22857 12.6548C2.22722 12.6548 2.22587 12.6548 2.22453 12.6548C2.2232 12.6548 2.22186 12.6548 2.22054 12.6548C2.21921 12.6548 2.21789 12.6548 2.21658 12.6548C2.21527 12.6548 2.21397 12.6548 2.21267 12.6548C2.21137 12.6548 2.21008 12.6548 2.20879 12.6548C2.20751 12.6548 2.20623 12.6548 2.20496 12.6548C2.20369 12.6548 2.20243 12.6548 2.20117 12.6548C2.19991 12.6548 2.19866 12.6548 2.19742 12.6548C2.19618 12.6548 2.19494 12.6548 2.19371 12.6548C2.19248 12.6548 2.19126 12.6548 2.19004 12.6548C2.18883 12.6548 2.18762 12.6548 2.18642 12.6548C2.18522 12.6548 2.18402 12.6548 2.18284 12.6548C2.18165 12.6548 2.18047 12.6548 2.1793 12.6548C2.17812 12.6548 2.17696 12.6548 2.1758 12.6548C2.17464 12.6548 2.17349 12.6548 2.17234 12.6548C2.1712 12.6548 2.17006 12.6548 2.16893 12.6548C2.1678 12.6548 2.16668 12.6548 2.16556 12.6548C2.16444 12.6548 2.16334 12.6548 2.16223 12.6548C2.16113 12.6548 2.16004 12.6548 2.15895 12.6548C2.15786 12.6548 2.15678 12.6548 2.15571 12.6548C2.15464 12.6548 2.15357 12.6548 2.15251 12.6548C2.15146 12.6548 2.15041 12.6548 2.14936 12.6548C2.14832 12.6548 2.14728 12.6548 2.14625 12.6548C2.14522 12.6548 2.1442 12.6548 2.14319 12.6548C2.14218 12.6548 2.14117 12.6548 2.14017 12.6548C2.13917 12.6548 2.13818 12.6548 2.13719 12.6548C2.13621 12.6548 2.13523 12.6548 2.13426 12.6548C2.13329 12.6548 2.13233 12.6548 2.13138 12.6548C2.13042 12.6548 2.12948 12.6548 2.12854 12.6548C2.1276 12.6548 2.12666 12.6548 2.12574 12.6548C2.12482 12.6548 2.1239 12.6548 2.12299 12.6548C2.12208 12.6548 2.12118 12.6548 2.12028 12.6548C2.11939 12.6548 2.1185 12.6548 2.11762 12.6548V12.7548C2.1185 12.7548 2.11939 12.7548 2.12028 12.7548C2.12118 12.7548 2.12208 12.7548 2.12299 12.7548C2.1239 12.7548 2.12482 12.7548 2.12574 12.7548C2.12666 12.7548 2.1276 12.7548 2.12854 12.7548C2.12948 12.7548 2.13042 12.7548 2.13138 12.7548C2.13233 12.7548 2.13329 12.7548 2.13426 12.7548C2.13523 12.7548 2.13621 12.7548 2.13719 12.7548C2.13818 12.7548 2.13917 12.7548 2.14017 12.7548C2.14117 12.7548 2.14218 12.7548 2.14319 12.7548C2.1442 12.7548 2.14522 12.7548 2.14625 12.7548C2.14728 12.7548 2.14832 12.7548 2.14936 12.7548C2.15041 12.7548 2.15146 12.7548 2.15251 12.7548C2.15357 12.7548 2.15464 12.7548 2.15571 12.7548C2.15678 12.7548 2.15786 12.7548 2.15895 12.7548C2.16004 12.7548 2.16113 12.7548 2.16223 12.7548C2.16334 12.7548 2.16444 12.7548 2.16556 12.7548C2.16668 12.7548 2.1678 12.7548 2.16893 12.7548C2.17006 12.7548 2.1712 12.7548 2.17234 12.7548C2.17349 12.7548 2.17464 12.7548 2.1758 12.7548C2.17696 12.7548 2.17812 12.7548 2.1793 12.7548C2.18047 12.7548 2.18165 12.7548 2.18284 12.7548C2.18402 12.7548 2.18522 12.7548 2.18642 12.7548C2.18762 12.7548 2.18883 12.7548 2.19004 12.7548C2.19126 12.7548 2.19248 12.7548 2.19371 12.7548C2.19494 12.7548 2.19618 12.7548 2.19742 12.7548C2.19866 12.7548 2.19991 12.7548 2.20117 12.7548C2.20243 12.7548 2.20369 12.7548 2.20496 12.7548C2.20623 12.7548 2.20751 12.7548 2.20879 12.7548C2.21008 12.7548 2.21137 12.7548 2.21267 12.7548C2.21397 12.7548 2.21527 12.7548 2.21658 12.7548C2.21789 12.7548 2.21921 12.7548 2.22054 12.7548C2.22186 12.7548 2.2232 12.7548 2.22453 12.7548C2.22587 12.7548 2.22722 12.7548 2.22857 12.7548C2.22992 12.7548 2.23128 12.7548 2.23265 12.7548C2.23401 12.7548 2.23538 12.7548 2.23676 12.7548C2.23814 12.7548 2.23953 12.7548 2.24092 12.7548C2.24231 12.7548 2.24371 12.7548 2.24512 12.7548C2.24652 12.7548 2.24793 12.7548 2.24935 12.7548C2.25077 12.7548 2.2522 12.7548 2.25363 12.7548C2.25506 12.7548 2.2565 12.7548 2.25794 12.7548C2.25939 12.7548 2.26084 12.7548 2.26229 12.7548C2.26375 12.7548 2.26522 12.7548 2.26669 12.7548C2.26816 12.7548 2.26963 12.7548 2.27112 12.7548C2.2726 12.7548 2.27409 12.7548 2.27559 12.7548C2.27708 12.7548 2.27858 12.7548 2.28009 12.7548C2.2816 12.7548 2.28312 12.7548 2.28464 12.7548C2.28616 12.7548 2.28769 12.7548 2.28922 12.7548C2.29076 12.7548 2.2923 12.7548 2.29384 12.7548C2.29539 12.7548 2.29694 12.7548 2.2985 12.7548C2.30006 12.7548 2.30163 12.7548 2.3032 12.7548C2.30477 12.7548 2.30635 12.7548 2.30793 12.7548C2.30952 12.7548 2.31111 12.7548 2.3127 12.7548C2.3143 12.7548 2.3159 12.7548 2.31751 12.7548C2.31912 12.7548 2.32074 12.7548 2.32236 12.7548C2.32398 12.7548 2.3256 12.7548 2.32724 12.7548C2.32887 12.7548 2.33051 12.7548 2.33216 12.7548C2.3338 12.7548 2.33545 12.7548 2.33711 12.7548C2.33877 12.7548 2.34043 12.7548 2.3421 12.7548C2.34377 12.7548 2.34544 12.7548 2.34713 12.7548C2.34881 12.7548 2.35049 12.7548 2.35219 12.7548C2.35388 12.7548 2.35558 12.7548 2.35728 12.7548C2.35899 12.7548 2.3607 12.7548 2.36242 12.7548C2.36413 12.7548 2.36586 12.7548 2.36759 12.7548C2.36931 12.7548 2.37105 12.7548 2.37279 12.7548C2.37453 12.7548 2.37627 12.7548 2.37803 12.7548C2.37978 12.7548 2.38154 12.7548 2.3833 12.7548C2.38506 12.7548 2.38683 12.7548 2.38861 12.7548C2.39038 12.7548 2.39216 12.7548 2.39395 12.7548C2.39573 12.7548 2.39753 12.7548 2.39932 12.7548C2.40112 12.7548 2.40292 12.7548 2.40473 12.7548C2.40654 12.7548 2.40836 12.7548 2.41018 12.7548C2.412 12.7548 2.41382 12.7548 2.41565 12.7548C2.41749 12.7548 2.41932 12.7548 2.42117 12.7548C2.42301 12.7548 2.42486 12.7548 2.42671 12.7548C2.42856 12.7548 2.43042 12.7548 2.43229 12.7548C2.43415 12.7548 2.43602 12.7548 2.4379 12.7548C2.43977 12.7548 2.44165 12.7548 2.44354 12.7548C2.44543 12.7548 2.44732 12.7548 2.44922 12.7548C2.45111 12.7548 2.45302 12.7548 2.45493 12.7548C2.45683 12.7548 2.45875 12.7548 2.46067 12.7548C2.46259 12.7548 2.46451 12.7548 2.46644 12.7548C2.46837 12.7548 2.4703 12.7548 2.47224 12.7548C2.47418 12.7548 2.47613 12.7548 2.47808 12.7548C2.48003 12.7548 2.48199 12.7548 2.48395 12.7548C2.48591 12.7548 2.48788 12.7548 2.48985 12.7548C2.49182 12.7548 2.4938 12.7548 2.49578 12.7548C2.49776 12.7548 2.49975 12.7548 2.50174 12.7548C2.50374 12.7548 2.50573 12.7548 2.50774 12.7548C2.50974 12.7548 2.51175 12.7548 2.51376 12.7548C2.51577 12.7548 2.51779 12.7548 2.51981 12.7548C2.52184 12.7548 2.52387 12.7548 2.5259 12.7548C2.52793 12.7548 2.52997 12.7548 2.53202 12.7548C2.53406 12.7548 2.53611 12.7548 2.53816 12.7548C2.54021 12.7548 2.54227 12.7548 2.54434 12.7548C2.5464 12.7548 2.54847 12.7548 2.55054 12.7548C2.55261 12.7548 2.55469 12.7548 2.55678 12.7548C2.55886 12.7548 2.56095 12.7548 2.56304 12.7548C2.56513 12.7548 2.56723 12.7548 2.56933 12.7548C2.57144 12.7548 2.57354 12.7548 2.57566 12.7548C2.57777 12.7548 2.57989 12.7548 2.58201 12.7548C2.58413 12.7548 2.58626 12.7548 2.58839 12.7548C2.59052 12.7548 2.59266 12.7548 2.5948 12.7548C2.59694 12.7548 2.59908 12.7548 2.60123 12.7548C2.60338 12.7548 2.60554 12.7548 2.6077 12.7548C2.60986 12.7548 2.61202 12.7548 2.61419 12.7548C2.61636 12.7548 2.61853 12.7548 2.62071 12.7548C2.62289 12.7548 2.62507 12.7548 2.62726 12.7548C2.62945 12.7548 2.63164 12.7548 2.63384 12.7548C2.63604 12.7548 2.63824 12.7548 2.64044 12.7548C2.64265 12.7548 2.64486 12.7548 2.64707 12.7548C2.64929 12.7548 2.65151 12.7548 2.65373 12.7548C2.65596 12.7548 2.65818 12.7548 2.66042 12.7548C2.66265 12.7548 2.66489 12.7548 2.66713 12.7548C2.66937 12.7548 2.67162 12.7548 2.67387 12.7548C2.67612 12.7548 2.67837 12.7548 2.68063 12.7548C2.68289 12.7548 2.68515 12.7548 2.68742 12.7548C2.68969 12.7548 2.69196 12.7548 2.69424 12.7548C2.69651 12.7548 2.69879 12.7548 2.70108 12.7548C2.70336 12.7548 2.70565 12.7548 2.70795 12.7548C2.71024 12.7548 2.71254 12.7548 2.71484 12.7548C2.71714 12.7548 2.71945 12.7548 2.72176 12.7548C2.72407 12.7548 2.72638 12.7548 2.7287 12.7548C2.73102 12.7548 2.73335 12.7548 2.73567 12.7548C2.738 12.7548 2.74033 12.7548 2.74267 12.7548C2.745 12.7548 2.74734 12.7548 2.74968 12.7548C2.75203 12.7548 2.75438 12.7548 2.75673 12.7548C2.75908 12.7548 2.76143 12.7548 2.76379 12.7548C2.76615 12.7548 2.76852 12.7548 2.77089 12.7548C2.77325 12.7548 2.77562 12.7548 2.778 12.7548C2.78038 12.7548 2.78276 12.7548 2.78514 12.7548C2.78752 12.7548 2.78991 12.7548 2.7923 12.7548C2.79469 12.7548 2.79709 12.7548 2.79949 12.7548C2.80189 12.7548 2.80429 12.7548 2.8067 12.7548C2.8091 12.7548 2.81151 12.7548 2.81393 12.7548C2.81634 12.7548 2.81876 12.7548 2.82118 12.7548C2.82361 12.7548 2.82603 12.7548 2.82846 12.7548C2.83089 12.7548 2.83332 12.7548 2.83576 12.7548C2.8382 12.7548 2.84064 12.7548 2.84308 12.7548C2.84553 12.7548 2.84798 12.7548 2.85043 12.7548C2.85288 12.7548 2.85534 12.7548 2.8578 12.7548C2.86026 12.7548 2.86272 12.7548 2.86519 12.7548C2.86765 12.7548 2.87012 12.7548 2.8726 12.7548C2.87507 12.7548 2.87755 12.7548 2.88003 12.7548C2.88251 12.7548 2.88499 12.7548 2.88748 12.7548C2.88997 12.7548 2.89246 12.7548 2.89496 12.7548C2.89745 12.7548 2.89995 12.7548 2.90245 12.7548C2.90495 12.7548 2.90746 12.7548 2.90997 12.7548C2.91248 12.7548 2.91499 12.7548 2.91751 12.7548C2.92002 12.7548 2.92254 12.7548 2.92506 12.7548C2.92759 12.7548 2.93011 12.7548 2.93264 12.7548C2.93517 12.7548 2.9377 12.7548 2.94024 12.7548C2.94278 12.7548 2.94532 12.7548 2.94786 12.7548C2.9504 12.7548 2.95295 12.7548 2.9555 12.7548C2.95805 12.7548 2.9606 12.7548 2.96315 12.7548C2.96571 12.7548 2.96827 12.7548 2.97083 12.7548C2.97339 12.7548 2.97596 12.7548 2.97853 12.7548C2.9811 12.7548 2.98367 12.7548 2.98624 12.7548C2.98882 12.7548 2.9914 12.7548 2.99398 12.7548C2.99656 12.7548 2.99914 12.7548 3.00173 12.7548C3.00432 12.7548 3.00691 12.7548 3.0095 12.7548C3.0121 12.7548 3.0147 12.7548 3.01729 12.7548C3.01989 12.7548 3.0225 12.7548 3.0251 12.7548C3.02771 12.7548 3.03032 12.7548 3.03293 12.7548C3.03554 12.7548 3.03816 12.7548 3.04078 12.7548C3.04339 12.7548 3.04601 12.7548 3.04864 12.7548C3.05126 12.7548 3.05389 12.7548 3.05652 12.7548C3.05915 12.7548 3.06178 12.7548 3.06442 12.7548C3.06705 12.7548 3.06969 12.7548 3.07233 12.7548C3.07497 12.7548 3.07762 12.7548 3.08026 12.7548C3.08291 12.7548 3.08556 12.7548 3.08821 12.7548C3.09086 12.7548 3.09352 12.7548 3.09618 12.7548C3.09884 12.7548 3.1015 12.7548 3.10416 12.7548C3.10682 12.7548 3.10949 12.7548 3.11216 12.7548C3.11483 12.7548 3.1175 12.7548 3.12017 12.7548C3.12285 12.7548 3.12553 12.7548 3.1282 12.7548C3.13088 12.7548 3.13357 12.7548 3.13625 12.7548C3.13894 12.7548 3.14162 12.7548 3.14431 12.7548C3.147 12.7548 3.1497 12.7548 3.15239 12.7548C3.15509 12.7548 3.15779 12.7548 3.16049 12.7548C3.16319 12.7548 3.16589 12.7548 3.16859 12.7548C3.1713 12.7548 3.17401 12.7548 3.17672 12.7548C3.17943 12.7548 3.18214 12.7548 3.18486 12.7548C3.18757 12.7548 3.19029 12.7548 3.19301 12.7548C3.19573 12.7548 3.19845 12.7548 3.20118 12.7548C3.2039 12.7548 3.20663 12.7548 3.20936 12.7548C3.21209 12.7548 3.21482 12.7548 3.21756 12.7548C3.22029 12.7548 3.22303 12.7548 3.22577 12.7548C3.22851 12.7548 3.23125 12.7548 3.23399 12.7548C3.23673 12.7548 3.23948 12.7548 3.24223 12.7548C3.24498 12.7548 3.24773 12.7548 3.25048 12.7548C3.25323 12.7548 3.25599 12.7548 3.25874 12.7548C3.2615 12.7548 3.26426 12.7548 3.26702 12.7548C3.26978 12.7548 3.27255 12.7548 3.27531 12.7548C3.27808 12.7548 3.28085 12.7548 3.28362 12.7548C3.28639 12.7548 3.28916 12.7548 3.29193 12.7548C3.29471 12.7548 3.29748 12.7548 3.30026 12.7548C3.30304 12.7548 3.30582 12.7548 3.3086 12.7548C3.31138 12.7548 3.31417 12.7548 3.31695 12.7548C3.31974 12.7548 3.32253 12.7548 3.32532 12.7548C3.32811 12.7548 3.3309 12.7548 3.3337 12.7548C3.33649 12.7548 3.33929 12.7548 3.34208 12.7548C3.34488 12.7548 3.34768 12.7548 3.35048 12.7548C3.35329 12.7548 3.35609 12.7548 3.3589 12.7548C3.3617 12.7548 3.36451 12.7548 3.36732 12.7548C3.37013 12.7548 3.37294 12.7548 3.37575 12.7548C3.37856 12.7548 3.38138 12.7548 3.38419 12.7548C3.38701 12.7548 3.38983 12.7548 3.39265 12.7548C3.39547 12.7548 3.39829 12.7548 3.40111 12.7548C3.40394 12.7548 3.40676 12.7548 3.40959 12.7548C3.41242 12.7548 3.41524 12.7548 3.41807 12.7548C3.4209 12.7548 3.42374 12.7548 3.42657 12.7548C3.4294 12.7548 3.43224 12.7548 3.43507 12.7548C3.43791 12.7548 3.44075 12.7548 3.44359 12.7548C3.44643 12.7548 3.44927 12.7548 3.45211 12.7548C3.45495 12.7548 3.4578 12.7548 3.46064 12.7548C3.46349 12.7548 3.46634 12.7548 3.46919 12.7548C3.47203 12.7548 3.47489 12.7548 3.47774 12.7548C3.48059 12.7548 3.48344 12.7548 3.4863 12.7548C3.48915 12.7548 3.49201 12.7548 3.49486 12.7548C3.49772 12.7548 3.50058 12.7548 3.50344 12.7548C3.5063 12.7548 3.50916 12.7548 3.51202 12.7548C3.51489 12.7548 3.51775 12.7548 3.52062 12.7548C3.52348 12.7548 3.52635 12.7548 3.52922 12.7548C3.53209 12.7548 3.53496 12.7548 3.53783 12.7548C3.5407 12.7548 3.54357 12.7548 3.54644 12.7548C3.54931 12.7548 3.55219 12.7548 3.55506 12.7548C3.55794 12.7548 3.56082 12.7548 3.56369 12.7548C3.56657 12.7548 3.56945 12.7548 3.57233 12.7548C3.57521 12.7548 3.57809 12.7548 3.58097 12.7548C3.58386 12.7548 3.58674 12.7548 3.58963 12.7548C3.59251 12.7548 3.5954 12.7548 3.59828 12.7548C3.60117 12.7548 3.60406 12.7548 3.60695 12.7548C3.60983 12.7548 3.61272 12.7548 3.61561 12.7548C3.61851 12.7548 3.6214 12.7548 3.62429 12.7548C3.62718 12.7548 3.63008 12.7548 3.63297 12.7548C3.63587 12.7548 3.63876 12.7548 3.64166 12.7548C3.64455 12.7548 3.64745 12.7548 3.65035 12.7548C3.65325 12.7548 3.65615 12.7548 3.65905 12.7548C3.66195 12.7548 3.66485 12.7548 3.66775 12.7548C3.67065 12.7548 3.67355 12.7548 3.67646 12.7548C3.67936 12.7548 3.68226 12.7548 3.68517 12.7548C3.68807 12.7548 3.69098 12.7548 3.69389 12.7548C3.69679 12.7548 3.6997 12.7548 3.70261 12.7548C3.70551 12.7548 3.70842 12.7548 3.71133 12.7548C3.71424 12.7548 3.71715 12.7548 3.72006 12.7548C3.72297 12.7548 3.72588 12.7548 3.72879 12.7548C3.73171 12.7548 3.73462 12.7548 3.73753 12.7548C3.74044 12.7548 3.74336 12.7548 3.74627 12.7548C3.74919 12.7548 3.7521 12.7548 3.75502 12.7548C3.75793 12.7548 3.76085 12.7548 3.76376 12.7548C3.76668 12.7548 3.7696 12.7548 3.77251 12.7548C3.77543 12.7548 3.77835 12.7548 3.78127 12.7548C3.78419 12.7548 3.7871 12.7548 3.79002 12.7548C3.79294 12.7548 3.79586 12.7548 3.79878 12.7548C3.8017 12.7548 3.80462 12.7548 3.80754 12.7548C3.81046 12.7548 3.81338 12.7548 3.8163 12.7548C3.81923 12.7548 3.82215 12.7548 3.82507 12.7548C3.82799 12.7548 3.83091 12.7548 3.83384 12.7548C3.83676 12.7548 3.83968 12.7548 3.8426 12.7548C3.84553 12.7548 3.84845 12.7548 3.85137 12.7548C3.8543 12.7548 3.85722 12.7548 3.86015 12.7548C3.86307 12.7548 3.86599 12.7548 3.86892 12.7548C3.87184 12.7548 3.87477 12.7548 3.87769 12.7548C3.88062 12.7548 3.88354 12.7548 3.88647 12.7548C3.88939 12.7548 3.89232 12.7548 3.89524 12.7548C3.89817 12.7548 3.90109 12.7548 3.90402 12.7548C3.90694 12.7548 3.90987 12.7548 3.91279 12.7548C3.91572 12.7548 3.91864 12.7548 3.92157 12.7548C3.92449 12.7548 3.92742 12.7548 3.93034 12.7548C3.93327 12.7548 3.93619 12.7548 3.93912 12.7548C3.94204 12.7548 3.94497 12.7548 3.94789 12.7548C3.95082 12.7548 3.95374 12.7548 3.95667 12.7548C3.95959 12.7548 3.96252 12.7548 3.96544 12.7548C3.96837 12.7548 3.97129 12.7548 3.97422 12.7548C3.97714 12.7548 3.98006 12.7548 3.98299 12.7548C3.98591 12.7548 3.98883 12.7548 3.99176 12.7548C3.99468 12.7548 3.9976 12.7548 4.00053 12.7548C4.00345 12.7548 4.00637 12.7548 4.00929 12.7548C4.01222 12.7548 4.01514 12.7548 4.01806 12.7548C4.02098 12.7548 4.0239 12.7548 4.02682 12.7548C4.02975 12.7548 4.03267 12.7548 4.03559 12.7548C4.03851 12.7548 4.04143 12.7548 4.04435 12.7548C4.04727 12.7548 4.05018 12.7548 4.0531 12.7548C4.05602 12.7548 4.05894 12.7548 4.06186 12.7548C4.06478 12.7548 4.06769 12.7548 4.07061 12.7548C4.07353 12.7548 4.07644 12.7548 4.07936 12.7548C4.08227 12.7548 4.08519 12.7548 4.0881 12.7548C4.09102 12.7548 4.09393 12.7548 4.09685 12.7548C4.09976 12.7548 4.10267 12.7548 4.10559 12.7548C4.1085 12.7548 4.11141 12.7548 4.11432 12.7548C4.11723 12.7548 4.12014 12.7548 4.12305 12.7548C4.12596 12.7548 4.12887 12.7548 4.13178 12.7548C4.13469 12.7548 4.1376 12.7548 4.1405 12.7548C4.14341 12.7548 4.14632 12.7548 4.14922 12.7548C4.15213 12.7548 4.15503 12.7548 4.15794 12.7548C4.16084 12.7548 4.16374 12.7548 4.16665 12.7548C4.16955 12.7548 4.17245 12.7548 4.17535 12.7548C4.17825 12.7548 4.18115 12.7548 4.18405 12.7548C4.18695 12.7548 4.18985 12.7548 4.19275 12.7548C4.19564 12.7548 4.19854 12.7548 4.20144 12.7548C4.20433 12.7548 4.20723 12.7548 4.21012 12.7548C4.21301 12.7548 4.21591 12.7548 4.2188 12.7548C4.22169 12.7548 4.22458 12.7548 4.22747 12.7548C4.23036 12.7548 4.23325 12.7548 4.23614 12.7548C4.23903 12.7548 4.24191 12.7548 4.2448 12.7548C4.24768 12.7548 4.25057 12.7548 4.25345 12.7548C4.25634 12.7548 4.25922 12.7548 4.2621 12.7548C4.26498 12.7548 4.26786 12.7548 4.27074 12.7548C4.27362 12.7548 4.2765 12.7548 4.27937 12.7548C4.28225 12.7548 4.28513 12.7548 4.288 12.7548C4.29087 12.7548 4.29375 12.7548 4.29662 12.7548C4.29949 12.7548 4.30236 12.7548 4.30523 12.7548C4.3081 12.7548 4.31097 12.7548 4.31384 12.7548C4.3167 12.7548 4.31957 12.7548 4.32243 12.7548C4.3253 12.7548 4.32816 12.7548 4.33102 12.7548C4.33388 12.7548 4.33674 12.7548 4.3396 12.7548C4.34246 12.7548 4.34532 12.7548 4.34817 12.7548C4.35103 12.7548 4.35389 12.7548 4.35674 12.7548C4.35959 12.7548 4.36244 12.7548 4.36529 12.7548C4.36814 12.7548 4.37099 12.7548 4.37384 12.7548C4.37669 12.7548 4.37953 12.7548 4.38238 12.7548C4.38522 12.7548 4.38807 12.7548 4.39091 12.7548C4.39375 12.7548 4.39659 12.7548 4.39943 12.7548C4.40226 12.7548 4.4051 12.7548 4.40794 12.7548C4.41077 12.7548 4.4136 12.7548 4.41644 12.7548C4.41927 12.7548 4.4221 12.7548 4.42493 12.7548C4.42775 12.7548 4.43058 12.7548 4.43341 12.7548C4.43623 12.7548 4.43906 12.7548 4.44188 12.7548C4.4447 12.7548 4.44752 12.7548 4.45034 12.7548C4.45316 12.7548 4.45597 12.7548 4.45879 12.7548C4.4616 12.7548 4.46441 12.7548 4.46723 12.7548C4.47004 12.7548 4.47285 12.7548 4.47565 12.7548C4.47846 12.7548 4.48127 12.7548 4.48407 12.7548C4.48687 12.7548 4.48968 12.7548 4.49248 12.7548C4.49528 12.7548 4.49807 12.7548 4.50087 12.7548C4.50367 12.7548 4.50646 12.7548 4.50925 12.7548C4.51205 12.7548 4.51484 12.7548 4.51762 12.7548C4.52041 12.7548 4.5232 12.7548 4.52598 12.7548C4.52877 12.7548 4.53155 12.7548 4.53433 12.7548C4.53711 12.7548 4.53989 12.7548 4.54267 12.7548C4.54544 12.7548 4.54822 12.7548 4.55099 12.7548C4.55376 12.7548 4.55653 12.7548 4.5593 12.7548C4.56207 12.7548 4.56483 12.7548 4.5676 12.7548C4.57036 12.7548 4.57312 12.7548 4.57588 12.7548C4.57864 12.7548 4.5814 12.7548 4.58415 12.7548C4.58691 12.7548 4.58966 12.7548 4.59241 12.7548C4.59516 12.7548 4.59791 12.7548 4.60066 12.7548C4.6034 12.7548 4.60615 12.7548 4.60889 12.7548C4.61163 12.7548 4.61437 12.7548 4.61711 12.7548C4.61984 12.7548 4.62258 12.7548 4.62531 12.7548C4.62804 12.7548 4.63077 12.7548 4.6335 12.7548C4.63623 12.7548 4.63895 12.7548 4.64167 12.7548C4.6444 12.7548 4.64712 12.7548 4.64984 12.7548C4.65255 12.7548 4.65527 12.7548 4.65798 12.7548C4.66069 12.7548 4.66341 12.7548 4.66611 12.7548C4.66882 12.7548 4.67153 12.7548 4.67423 12.7548C4.67693 12.7548 4.67963 12.7548 4.68233 12.7548C4.68503 12.7548 4.68772 12.7548 4.69042 12.7548C4.69311 12.7548 4.6958 12.7548 4.69849 12.7548C4.70118 12.7548 4.70386 12.7548 4.70654 12.7548C4.70923 12.7548 4.71191 12.7548 4.71458 12.7548C4.71726 12.7548 4.71993 12.7548 4.72261 12.7548C4.72528 12.7548 4.72795 12.7548 4.73061 12.7548C4.73328 12.7548 4.73594 12.7548 4.7386 12.7548C4.74127 12.7548 4.74392 12.7548 4.74658 12.7548C4.74923 12.7548 4.75189 12.7548 4.75454 12.7548C4.75719 12.7548 4.75983 12.7548 4.76248 12.7548C4.76512 12.7548 4.76776 12.7548 4.7704 12.7548C4.77304 12.7548 4.77568 12.7548 4.77831 12.7548C4.78094 12.7548 4.78357 12.7548 4.7862 12.7548C4.78883 12.7548 4.79145 12.7548 4.79407 12.7548C4.79669 12.7548 4.79931 12.7548 4.80193 12.7548C4.80454 12.7548 4.80715 12.7548 4.80976 12.7548C4.81237 12.7548 4.81498 12.7548 4.81758 12.7548C4.82018 12.7548 4.82278 12.7548 4.82538 12.7548C4.82798 12.7548 4.83057 12.7548 4.83316 12.7548C4.83575 12.7548 4.83834 12.7548 4.84093 12.7548C4.84351 12.7548 4.84609 12.7548 4.84867 12.7548C4.85125 12.7548 4.85382 12.7548 4.8564 12.7548C4.85897 12.7548 4.86154 12.7548 4.8641 12.7548C4.86667 12.7548 4.86923 12.7548 4.87179 12.7548C4.87435 12.7548 4.87691 12.7548 4.87946 12.7548C4.88201 12.7548 4.88456 12.7548 4.88711 12.7548C4.88965 12.7548 4.8922 12.7548 4.89474 12.7548C4.89728 12.7548 4.89981 12.7548 4.90234 12.7548C4.90488 12.7548 4.90741 12.7548 4.90993 12.7548C4.91246 12.7548 4.91498 12.7548 4.9175 12.7548C4.92002 12.7548 4.92254 12.7548 4.92505 12.7548C4.92756 12.7548 4.93007 12.7548 4.93258 12.7548C4.93508 12.7548 4.93759 12.7548 4.94008 12.7548C4.94258 12.7548 4.94508 12.7548 4.94757 12.7548C4.95006 12.7548 4.95255 12.7548 4.95504 12.7548C4.95752 12.7548 4.96 12.7548 4.96248 12.7548C4.96496 12.7548 4.96743 12.7548 4.9699 12.7548C4.97237 12.7548 4.97484 12.7548 4.9773 12.7548C4.97976 12.7548 4.98222 12.7548 4.98468 12.7548C4.98714 12.7548 4.98959 12.7548 4.99204 12.7548C4.99449 12.7548 4.99693 12.7548 4.99937 12.7548C5.00181 12.7548 5.00425 12.7548 5.00668 12.7548C5.00912 12.7548 5.01155 12.7548 5.01397 12.7548C5.0164 12.7548 5.01882 12.7548 5.02124 12.7548C5.02366 12.7548 5.02607 12.7548 5.02849 12.7548C5.0309 12.7548 5.0333 12.7548 5.03571 12.7548C5.03811 12.7548 5.04051 12.7548 5.0429 12.7548C5.0453 12.7548 5.04769 12.7548 5.05008 12.7548C5.05247 12.7548 5.05485 12.7548 5.05723 12.7548C5.05961 12.7548 5.06199 12.7548 5.06436 12.7548C5.06673 12.7548 5.0691 12.7548 5.07146 12.7548C5.07383 12.7548 5.07619 12.7548 5.07854 12.7548C5.0809 12.7548 5.08325 12.7548 5.0856 12.7548C5.08795 12.7548 5.09029 12.7548 5.09263 12.7548C5.09497 12.7548 5.0973 12.7548 5.09964 12.7548C5.10197 12.7548 5.10429 12.7548 5.10662 12.7548C5.10894 12.7548 5.11126 12.7548 5.11358 12.7548C5.11589 12.7548 5.1182 12.7548 5.12051 12.7548C5.12281 12.7548 5.12512 12.7548 5.12741 12.7548C5.12971 12.7548 5.13201 12.7548 5.1343 12.7548C5.13659 12.7548 5.13887 12.7548 5.14115 12.7548C5.14343 12.7548 5.14571 12.7548 5.14798 12.7548C5.15025 12.7548 5.15252 12.7548 5.15479 12.7548C5.15705 12.7548 5.15931 12.7548 5.16156 12.7548C5.16382 12.7548 5.16607 12.7548 5.16832 12.7548C5.17056 12.7548 5.1728 12.7548 5.17504 12.7548C5.17728 12.7548 5.17951 12.7548 5.18174 12.7548C5.18397 12.7548 5.18619 12.7548 5.18841 12.7548C5.19063 12.7548 5.19285 12.7548 5.19506 12.7548C5.19727 12.7548 5.19948 12.7548 5.20168 12.7548C5.20388 12.7548 5.20608 12.7548 5.20827 12.7548C5.21046 12.7548 5.21265 12.7548 5.21483 12.7548C5.21701 12.7548 5.21919 12.7548 5.22137 12.7548C5.22354 12.7548 5.22571 12.7548 5.22788 12.7548C5.23004 12.7548 5.2322 12.7548 5.23436 12.7548C5.23651 12.7548 5.23866 12.7548 5.24081 12.7548C5.24295 12.7548 5.2451 12.7548 5.24723 12.7548C5.24937 12.7548 5.2515 12.7548 5.25363 12.7548C5.25575 12.7548 5.25788 12.7548 5.25999 12.7548C5.26211 12.7548 5.26422 12.7548 5.26633 12.7548C5.26844 12.7548 5.27054 12.7548 5.27264 12.7548C5.27474 12.7548 5.27683 12.7548 5.27892 12.7548C5.28101 12.7548 5.28309 12.7548 5.28517 12.7548C5.28725 12.7548 5.28932 12.7548 5.29139 12.7548C5.29346 12.7548 5.29552 12.7548 5.29758 12.7548C5.29964 12.7548 5.3017 12.7548 5.30374 12.7548C5.30579 12.7548 5.30784 12.7548 5.30988 12.7548C5.31191 12.7548 5.31395 12.7548 5.31598 12.7548C5.31801 12.7548 5.32003 12.7548 5.32205 12.7548C5.32407 12.7548 5.32608 12.7548 5.32809 12.7548C5.3301 12.7548 5.3321 12.7548 5.3341 12.7548C5.3361 12.7548 5.33809 12.7548 5.34008 12.7548C5.34206 12.7548 5.34405 12.7548 5.34602 12.7548C5.348 12.7548 5.34997 12.7548 5.35194 12.7548C5.35391 12.7548 5.35587 12.7548 5.35783 12.7548C5.35978 12.7548 5.36173 12.7548 5.36368 12.7548C5.36562 12.7548 5.36757 12.7548 5.3695 12.7548C5.37144 12.7548 5.37337 12.7548 5.37529 12.7548C5.37722 12.7548 5.37913 12.7548 5.38105 12.7548C5.38296 12.7548 5.38487 12.7548 5.38677 12.7548C5.38868 12.7548 5.39058 12.7548 5.39247 12.7548C5.39436 12.7548 5.39625 12.7548 5.39813 12.7548C5.40001 12.7548 5.40189 12.7548 5.40376 12.7548C5.40563 12.7548 5.40749 12.7548 5.40935 12.7548C5.41121 12.7548 5.41306 12.7548 5.41491 12.7548C5.41676 12.7548 5.4186 12.7548 5.42044 12.7548C5.42228 12.7548 5.42411 12.7548 5.42594 12.7548C5.42776 12.7548 5.42958 12.7548 5.4314 12.7548C5.43321 12.7548 5.43502 12.7548 5.43683 12.7548C5.43863 12.7548 5.44043 12.7548 5.44222 12.7548C5.44401 12.7548 5.4458 12.7548 5.44758 12.7548C5.44936 12.7548 5.45114 12.7548 5.45291 12.7548C5.45467 12.7548 5.45644 12.7548 5.4582 12.7548C5.45995 12.7548 5.46171 12.7548 5.46345 12.7548C5.4652 12.7548 5.46694 12.7548 5.46867 12.7548C5.47041 12.7548 5.47214 12.7548 5.47386 12.7548C5.47558 12.7548 5.4773 12.7548 5.47901 12.7548C5.48072 12.7548 5.48243 12.7548 5.48413 12.7548C5.48583 12.7548 5.48752 12.7548 5.48921 12.7548C5.4909 12.7548 5.49258 12.7548 5.49425 12.7548C5.49593 12.7548 5.4976 12.7548 5.49926 12.7548C5.50093 12.7548 5.50258 12.7548 5.50424 12.7548C5.50589 12.7548 5.50753 12.7548 5.50917 12.7548C5.51081 12.7548 5.51245 12.7548 5.51407 12.7548C5.5157 12.7548 5.51732 12.7548 5.51894 12.7548C5.52055 12.7548 5.52216 12.7548 5.52377 12.7548C5.52537 12.7548 5.52697 12.7548 5.52856 12.7548C5.53015 12.7548 5.53173 12.7548 5.53331 12.7548C5.53489 12.7548 5.53646 12.7548 5.53803 12.7548C5.53959 12.7548 5.54115 12.7548 5.54271 12.7548C5.54426 12.7548 5.54581 12.7548 5.54735 12.7548C5.54889 12.7548 5.55042 12.7548 5.55195 12.7548C5.55348 12.7548 5.555 12.7548 5.55652 12.7548C5.55803 12.7548 5.55954 12.7548 5.56104 12.7548C5.56255 12.7548 5.56404 12.7548 5.56553 12.7548C5.56702 12.7548 5.56851 12.7548 5.56998 12.7548C5.57146 12.7548 5.57293 12.7548 5.5744 12.7548C5.57586 12.7548 5.57732 12.7548 5.57877 12.7548C5.58022 12.7548 5.58167 12.7548 5.58311 12.7548C5.58454 12.7548 5.58598 12.7548 5.5874 12.7548C5.58883 12.7548 5.59025 12.7548 5.59166 12.7548C5.59307 12.7548 5.59448 12.7548 5.59587 12.7548C5.59727 12.7548 5.59867 12.7548 5.60005 12.7548C5.60144 12.7548 5.60282 12.7548 5.60419 12.7548C5.60556 12.7548 5.60693 12.7548 5.60829 12.7548C5.60965 12.7548 5.611 12.7548 5.61235 12.7548C5.61369 12.7548 5.61503 12.7548 5.61636 12.7548C5.6177 12.7548 5.61902 12.7548 5.62034 12.7548C5.62166 12.7548 5.62297 12.7548 5.62428 12.7548C5.62558 12.7548 5.62688 12.7548 5.62817 12.7548C5.62946 12.7548 5.63075 12.7548 5.63203 12.7548C5.6333 12.7548 5.63458 12.7548 5.63584 12.7548C5.6371 12.7548 5.63836 12.7548 5.63961 12.7548C5.64086 12.7548 5.64211 12.7548 5.64334 12.7548C5.64458 12.7548 5.64581 12.7548 5.64703 12.7548V12.6548ZM2.11762 12.6548C1.75603 12.6548 1.46173 12.3606 1.46173 11.9989H1.36173C1.36173 12.4158 1.70081 12.7548 2.11762 12.7548V12.6548ZM1.46173 11.9989V7.76368H1.36173V11.9989H1.46173ZM1.46173 7.76368C1.46173 7.40208 1.75599 7.10778 2.11762 7.10778V7.00778C1.70076 7.00778 1.36173 7.34686 1.36173 7.76368H1.46173ZM2.11762 7.10778H5.64703V7.00778H2.11762V7.10778ZM5.59703 7.05778V12.7048H5.69703V7.05778H5.59703ZM8.42055 16.2342C8.42055 16.5958 8.12629 16.8901 7.76466 16.8901V16.9901C8.18152 16.9901 8.52055 16.651 8.52055 16.2342H8.42055ZM7.76466 16.8901H6.9V16.9901H7.76466V16.8901ZM6.9 16.8901C6.83576 16.8901 6.77403 16.899 6.71529 16.9138L6.73971 17.0107C6.7915 16.9977 6.84499 16.9901 6.9 16.9901V16.8901ZM6.77729 16.9576L6.52168 14.1899L6.4221 14.1991L6.67771 16.9668L6.77729 16.9576ZM6.45608 14.2419L8.45474 14.9081L8.48636 14.8132L6.4877 14.147L6.45608 14.2419ZM8.42055 14.8606V16.2342H8.52055V14.8606H8.42055ZM14.1334 15.2074L7.07462 12.8545L7.043 12.9494L14.1018 15.3023L14.1334 15.2074ZM7.10881 12.9019V6.86068H7.00881V12.9019H7.10881ZM7.07462 6.90811L14.1334 4.55517L14.1018 4.4603L7.043 6.81324L7.07462 6.90811ZM14.0676 4.50774V15.2549H14.1676V4.50774H14.0676ZM16.8911 16.2342C16.8911 16.5958 16.5968 16.8901 16.2352 16.8901V16.9901C16.6521 16.9901 16.9911 16.651 16.9911 16.2342H16.8911ZM16.2352 16.8901C15.8736 16.8901 15.5793 16.5959 15.5793 16.2342H15.4793C15.4793 16.6511 15.8184 16.9901 16.2352 16.9901V16.8901ZM15.5793 16.2342V3.52842H15.4793V16.2342H15.5793ZM15.5793 3.52842C15.5793 3.16683 15.8736 2.87253 16.2352 2.87253V2.77253C15.8183 2.77253 15.4793 3.11161 15.4793 3.52842H15.5793ZM16.2352 2.87253C16.5968 2.87253 16.8911 3.16679 16.8911 3.52842H16.9911C16.9911 3.11156 16.652 2.77253 16.2352 2.77253V2.87253ZM16.8911 3.52842V16.2342H16.9911V3.52842H16.8911ZM23.2939 8.4196H20.4704V8.5196H23.2939V8.4196ZM20.4704 8.4196C20.053 8.4196 19.7145 8.75801 19.7145 9.17548H19.8145C19.8145 8.81324 20.1082 8.5196 20.4704 8.5196V8.4196ZM19.7145 9.17548C19.7145 9.5929 20.0529 9.93137 20.4704 9.93137V9.83137C20.1082 9.83137 19.8145 9.53768 19.8145 9.17548H19.7145ZM20.4704 9.93137H23.2939V9.83137H20.4704V9.93137ZM23.2939 9.93137C23.7114 9.93137 24.0498 9.59295 24.0498 9.17548H23.9498C23.9498 9.53772 23.6561 9.83137 23.2939 9.83137V9.93137ZM24.0498 9.17548C24.0498 8.75801 23.7114 8.4196 23.2939 8.4196V8.5196C23.6562 8.5196 23.9498 8.81324 23.9498 9.17548H24.0498ZM23.9701 4.60218C23.7834 4.22877 23.3293 4.07743 22.9559 4.26416L23.0006 4.3536C23.3246 4.19158 23.7186 4.3229 23.8806 4.6469L23.9701 4.60218ZM22.9559 4.26416L20.1324 5.6759L20.1771 5.76534L23.0006 4.3536L22.9559 4.26416ZM20.1324 5.6759C19.759 5.86262 19.6077 6.31664 19.7944 6.69005L19.8838 6.64532C19.7218 6.32132 19.8531 5.92737 20.1771 5.76534L20.1324 5.6759ZM19.7944 6.69005C19.9812 7.06365 20.4353 7.21474 20.8085 7.02806L20.7638 6.93862C20.44 7.1006 20.0459 6.96951 19.8838 6.64532L19.7944 6.69005ZM20.8085 7.02806L23.632 5.61633L23.5873 5.52688L20.7638 6.93862L20.8085 7.02806ZM23.6321 5.61632C24.0055 5.4296 24.1567 4.97558 23.9701 4.60218L23.8806 4.6469C24.0426 4.97091 23.9113 5.36486 23.5873 5.52688L23.6321 5.61632ZM23.632 12.7346L20.8085 11.3229L20.7638 11.4124L23.5873 12.8241L23.632 12.7346ZM20.8085 11.3229C20.4351 11.1362 19.9811 11.2875 19.7943 11.6609L19.8838 11.7057C20.0458 11.3817 20.4398 11.2503 20.7638 11.4124L20.8085 11.3229ZM19.7943 11.6609C19.6077 12.0343 19.759 12.4883 20.1323 12.6751L20.1771 12.5856C19.8531 12.4236 19.7218 12.0297 19.8838 11.7057L19.7943 11.6609ZM20.1324 12.6751L22.9559 14.0868L23.0006 13.9974L20.1771 12.5856L20.1324 12.6751ZM22.9559 14.0868C23.3293 14.2736 23.7833 14.1221 23.97 13.7488L23.8806 13.7041C23.7186 14.028 23.3246 14.1594 23.0006 13.9974L22.9559 14.0868ZM23.97 13.7488C24.1567 13.3754 24.0054 12.9214 23.632 12.7347L23.5873 12.8241C23.9113 12.9861 24.0425 13.3801 23.8806 13.7041L23.97 13.7488Z" fill="#798291"/>
</g>
<defs>
<clipPath id="clip0_408_1480">
<rect width="24" height="24" fill="white"/>
</clipPath>
</defs>
</svg>
