<svg width="16" height="16" viewBox="0 0 16 16" fill="none" xmlns="http://www.w3.org/2000/svg">
<path fill-rule="evenodd" clip-rule="evenodd" d="M6.85417 13.0521V14.0417H14.0417V1.64583H6.85417V2.63542C6.85417 2.78736 6.79381 2.93309 6.68636 3.04053C6.57892 3.14797 6.4332 3.20833 6.28125 3.20833C6.1293 3.20833 5.98358 3.14797 5.87614 3.04053C5.76869 2.93309 5.70833 2.78736 5.70833 2.63542V1.59375C5.70833 1.30367 5.82357 1.02547 6.02869 0.820352C6.2338 0.615234 6.512 0.5 6.80208 0.5H14.0938C14.3838 0.5 14.662 0.615234 14.8671 0.820352C15.0723 1.02547 15.1875 1.30367 15.1875 1.59375V14.0938C15.1875 14.3838 15.0723 14.662 14.8671 14.8671C14.662 15.0723 14.3838 15.1875 14.0938 15.1875H6.80208C6.512 15.1875 6.2338 15.0723 6.02869 14.8671C5.82357 14.662 5.70833 14.3838 5.70833 14.0938V13.0521C5.70833 12.9001 5.76869 12.7544 5.87614 12.647C5.98358 12.5395 6.1293 12.4792 6.28125 12.4792C6.4332 12.4792 6.57892 12.5395 6.68636 12.647C6.79381 12.7544 6.85417 12.9001 6.85417 13.0521ZM11.8947 8.24875L8.94882 11.1946C8.84131 11.3014 8.69559 11.3616 8.54403 11.3613C8.39236 11.3611 8.24695 11.3008 8.1397 11.1935C8.03245 11.0863 7.9721 10.9409 7.9719 10.7892C7.97169 10.6377 8.0318 10.4919 8.1386 10.3844L10.1064 8.41657H1.07292C0.92097 8.41657 0.775246 8.35621 0.667804 8.24877C0.560361 8.14133 0.5 7.9956 0.5 7.84366C0.5 7.69171 0.560361 7.54598 0.667804 7.43854C0.775246 7.3311 0.92097 7.27074 1.07292 7.27074H10.1064L8.1382 5.30249C8.03076 5.19505 7.9704 5.04932 7.9704 4.89738C7.9704 4.74543 8.03076 4.59971 8.1382 4.49226C8.24564 4.38482 8.39136 4.32446 8.54331 4.32446C8.69526 4.32446 8.84098 4.38482 8.94842 4.49226L11.8947 7.43853C12.0022 7.54597 12.0625 7.69169 12.0625 7.84364C12.0625 7.99559 12.0022 8.14131 11.8947 8.24875Z" fill="white"/>
</svg>
