<svg width="17" height="16" viewBox="0 0 17 16" fill="none" xmlns="http://www.w3.org/2000/svg">
<path d="M2.45868 13.9347C3.23063 14.4911 4.57484 14.8441 6.05628 14.9805C7.54078 15.1172 9.17727 15.0377 10.5431 14.7178L10.6538 14.6919L10.5865 14.6003C10.2964 14.2061 10.0999 13.7511 10.0118 13.2696C9.92373 12.7882 9.9464 12.293 10.0781 11.8217C10.2098 11.3503 10.4471 10.9151 10.7719 10.549C11.0968 10.183 11.5007 9.89568 11.9531 9.70891L12.0424 9.67204L11.9845 9.59467C11.2763 8.64761 10.288 7.9475 9.15963 7.59357C8.03126 7.23964 6.82011 7.24986 5.69788 7.62277C4.57564 7.99568 3.59925 8.71236 2.90712 9.67123C2.21499 10.6301 1.84222 11.7825 1.84167 12.9651L2.45868 13.9347ZM2.45868 13.9347C2.05595 13.644 1.84168 13.3275 1.84167 12.9651L2.45868 13.9347ZM0.95 12.9651L0.95 12.9652C0.950027 13.4092 1.11707 14.0704 1.94193 14.6592C2.54238 15.0897 3.38251 15.4079 4.3451 15.6181C5.30672 15.828 6.38589 15.9292 7.46094 15.9292H7.46199C8.7905 15.9428 10.1143 15.7684 11.3939 15.4111L11.4262 15.4021L11.4545 15.4201C11.8775 15.6906 12.3577 15.8588 12.857 15.9114C13.3563 15.964 13.8611 15.8995 14.3311 15.7231C14.8012 15.5467 15.2238 15.2633 15.5652 14.8952C15.9067 14.5271 16.1577 14.0845 16.2984 13.6025C16.4391 13.1205 16.4656 12.6124 16.3757 12.1184C16.2858 11.6245 16.0822 11.1582 15.7808 10.7566C15.4794 10.3551 15.0886 10.0292 14.6394 9.80495C14.1901 9.58068 13.6949 9.46415 13.1928 9.46458L13.1617 9.46461L13.159 9.46198H13.1383H12.9801L12.9579 9.42776C12.1524 8.18441 10.9487 7.25127 9.5439 6.78102L9.40747 6.73535L9.52304 6.64965C10.1039 6.2189 10.5342 5.61595 10.7527 4.92655C10.9711 4.23715 10.9666 3.49642 10.7398 2.80972C10.513 2.12303 10.0754 1.52535 9.48931 1.1017C8.90321 0.678046 8.19844 0.45 7.47526 0.45C6.75208 0.45 6.04731 0.678046 5.46121 1.1017C4.87511 1.52535 4.43753 2.12303 4.21071 2.80972C3.9839 3.49642 3.97939 4.23715 4.19785 4.92655C4.4163 5.61595 4.84658 6.2189 5.42748 6.64965L5.54297 6.73529L5.40666 6.781C4.11011 7.21583 2.98265 8.04648 2.18313 9.15592C1.38362 10.2653 0.95233 11.5976 0.95 12.9651ZM5.67417 2.0924C6.15153 1.61505 6.79888 1.34656 7.47396 1.34583C7.97758 1.34583 8.46989 1.49517 8.88864 1.77497C9.30738 2.05477 9.63376 2.45245 9.82648 2.91774C10.0192 3.38302 10.0696 3.89501 9.97139 4.38896C9.87313 4.8829 9.63062 5.33662 9.2745 5.69273C8.91839 6.04884 8.46467 6.29136 7.97073 6.38961C7.47678 6.48786 6.9648 6.43744 6.49951 6.24471C6.03423 6.05198 5.63654 5.72561 5.35674 5.30686C5.07696 4.88813 4.92761 4.39584 4.9276 3.89224C4.92831 3.21714 5.19681 2.56977 5.67417 2.0924ZM13.1791 15.0375C12.7162 15.0353 12.2643 14.8961 11.8805 14.6374C11.4965 14.3786 11.1979 14.0119 11.0222 13.5836C10.8465 13.1552 10.8016 12.6844 10.8932 12.2306C10.9848 11.7767 11.2089 11.3602 11.537 11.0336C11.8651 10.707 12.2827 10.4849 12.7369 10.3953C13.1912 10.3058 13.6617 10.3528 14.0893 10.5305C14.5168 10.7081 14.8822 11.0085 15.1392 11.3936C15.3962 11.7787 15.5333 12.2312 15.5333 12.6942C15.5326 13.3154 15.2855 13.9112 14.8463 14.3504C14.407 14.7897 13.8114 15.0368 13.1902 15.0375L13.1793 15.0375C13.1793 15.0375 13.1792 15.0375 13.1791 15.0375ZM12.7444 12.2485H11.8882C11.7699 12.2485 11.6565 12.2955 11.5729 12.3791C11.4893 12.4627 11.4424 12.5761 11.4424 12.6943C11.4424 12.8126 11.4893 12.926 11.5729 13.0096C11.6565 13.0932 11.7699 13.1402 11.8882 13.1402H12.7444V13.9964C12.7444 14.1147 12.7914 14.2281 12.875 14.3117C12.9586 14.3953 13.072 14.4423 13.1903 14.4423C13.3085 14.4423 13.4219 14.3953 13.5055 14.3117C13.5891 14.2281 13.6361 14.1147 13.6361 13.9964V13.1402H14.4924C14.6106 13.1402 14.724 13.0932 14.8076 13.0096C14.8912 12.926 14.9382 12.8126 14.9382 12.6943C14.9382 12.5761 14.8912 12.4627 14.8076 12.3791C14.724 12.2955 14.6106 12.2485 14.4924 12.2485H13.6361V11.3923C13.6361 11.274 13.5891 11.1606 13.5055 11.077C13.4219 10.9934 13.3085 10.9464 13.1903 10.9464C13.072 10.9464 12.9586 10.9934 12.875 11.077C12.7914 11.1606 12.7444 11.274 12.7444 11.3923V12.2485Z" fill="white" stroke="white" stroke-width="0.1"/>
</svg>
