<svg width="24" height="24" viewBox="0 0 24 24" fill="none" xmlns="http://www.w3.org/2000/svg">
<g clip-path="url(#clip0_408_1458)">
<path d="M19.0339 12.4376C18.9495 12.3513 18.8488 12.2827 18.7377 12.2358C18.6265 12.1889 18.5072 12.1645 18.3865 12.1642C18.2659 12.1639 18.1464 12.1876 18.035 12.2339C17.9236 12.2802 17.8225 12.3483 17.7377 12.434C17.6529 12.5198 17.5859 12.6216 17.5408 12.7335C17.4958 12.8454 17.4734 12.9652 17.475 13.0858C17.4767 13.2064 17.5024 13.3255 17.5505 13.4362C17.5987 13.5468 17.6684 13.6467 17.7555 13.7301C18.5268 14.4891 19.1387 15.3944 19.5553 16.393C19.972 17.3917 20.185 18.4635 20.1818 19.5455C20.1818 20.6574 16.9946 22.2728 12 22.2728C7.00538 22.2728 3.81822 20.6566 3.81822 19.5437C3.81516 18.4691 4.02528 17.4045 4.43643 16.4117C4.84758 15.4188 5.45158 14.5173 6.21348 13.7595C6.29965 13.6755 6.36829 13.5752 6.4154 13.4644C6.46251 13.3537 6.48716 13.2347 6.48792 13.1143C6.48869 12.994 6.46554 12.8747 6.41984 12.7633C6.37414 12.652 6.30678 12.5508 6.22168 12.4657C6.13657 12.3806 6.03542 12.3133 5.92408 12.2676C5.81275 12.2219 5.69344 12.1987 5.57309 12.1995C5.45274 12.2002 5.33374 12.2249 5.223 12.272C5.11225 12.3191 5.01196 12.3878 4.92794 12.4739C3.99651 13.4005 3.25813 14.5026 2.75555 15.7164C2.25297 16.9303 1.99618 18.2318 2.00004 19.5455C2.00004 22.4979 7.15184 24.091 12 24.091C16.8482 24.091 22 22.4979 22 19.5455C22.004 18.2229 21.7437 16.9128 21.2343 15.6922C20.725 14.4716 19.9769 13.365 19.0339 12.4376V12.4376Z" fill="#798291"/>
<path d="M11.9999 13.1817C13.2585 13.1817 14.4888 12.8085 15.5353 12.1093C16.5818 11.41 17.3975 10.4162 17.8791 9.25339C18.3608 8.09059 18.4868 6.81108 18.2412 5.57666C17.9957 4.34224 17.3896 3.20836 16.4996 2.31839C15.6097 1.42842 14.4758 0.822348 13.2414 0.576807C12.007 0.331265 10.7274 0.457286 9.56465 0.938933C8.40185 1.42058 7.40799 2.23622 6.70875 3.28271C6.00951 4.3292 5.63629 5.55954 5.63629 6.81814C5.63824 8.50528 6.30932 10.1228 7.5023 11.3157C8.69529 12.5087 10.3128 13.1798 11.9999 13.1817ZM11.9999 2.27271C12.8989 2.27271 13.7777 2.53929 14.5252 3.03875C15.2727 3.53821 15.8553 4.24811 16.1993 5.07868C16.5434 5.90925 16.6334 6.82318 16.458 7.70491C16.2826 8.58664 15.8497 9.39656 15.214 10.0322C14.5783 10.6679 13.7684 11.1008 12.8867 11.2762C12.0049 11.4516 11.091 11.3616 10.2604 11.0176C9.42987 10.6735 8.71997 10.0909 8.22051 9.34345C7.72105 8.59596 7.45447 7.71714 7.45447 6.81814C7.45588 5.61305 7.93523 4.45773 8.78736 3.6056C9.63949 2.75347 10.7948 2.27413 11.9999 2.27271V2.27271Z" fill="#798291"/>
</g>
<defs>
<clipPath id="clip0_408_1458">
<rect width="24" height="24" fill="white"/>
</clipPath>
</defs>
</svg>
